<svg width="198" height="200" viewBox="0 0 198 200" fill="none" xmlns="http://www.w3.org/2000/svg">
<g clip-path="url(#clip0)">
<path d="M99.0004 199.456C153.527 199.456 198 154.709 198 99.8457C198 44.9818 153.527 0.234863 99.0004 0.234863C44.473 0.234863 0 44.9818 0 99.8457C0 154.709 44.473 199.456 99.0004 199.456Z" fill="url(#paint0_linear)"/>
<path d="M56.6338 39.2695H155.312L177.703 141.897L169.503 141.941L169.306 178.175L177.758 178.22L177.703 184.274H44.3117C31.6869 183.257 32.813 159.958 32.1378 153.721L43.3766 49.3948C43.42 44.7586 48.066 39.2695 56.6338 39.2695Z" fill="url(#paint1_linear)"/>
<path d="M56.6339 39.2695H66.0845L57.4827 184.274L42.7321 183.848C30.3973 183.36 28.555 153.691 32.6724 142.934L43.3771 49.3944C43.4205 44.7586 48.0669 39.2695 56.6339 39.2695Z" fill="#191847"/>
<path d="M46.0296 141.886H175.146C169.287 154.315 169.439 166.572 175.146 178.667H46.0296C32.1793 178.667 32.1812 141.886 46.0296 141.886Z" fill="white"/>
<path d="M36.6411 151.997H171.69C171.611 152.365 171.539 152.734 171.471 153.101H36.3816C36.4625 152.729 36.5476 152.36 36.6411 151.997ZM171.058 155.867C171.016 156.235 170.98 156.603 170.949 156.97H35.7927C35.8259 156.6 35.8677 156.232 35.9141 155.867H171.058ZM170.813 159.736C170.808 160.104 170.808 160.472 170.813 160.84H35.6492C35.6438 160.472 35.6438 160.104 35.6492 159.736H170.813ZM170.951 163.604C170.983 163.974 171.019 164.341 171.06 164.709H35.916C35.87 164.342 35.8294 163.974 35.7958 163.604H170.951ZM171.473 167.474C171.54 167.841 171.614 168.209 171.693 168.577H36.6466C36.5514 168.214 36.4663 167.846 36.3859 167.474H171.473ZM172.379 171.342C172.483 171.71 172.593 172.078 172.708 172.445H38.0121C37.8465 172.089 37.688 171.72 37.5403 171.342H172.379ZM173.669 175.211C173.81 175.579 173.957 175.947 174.108 176.315H40.6147C40.2775 175.978 39.9576 175.608 39.6541 175.211H173.669Z" fill="#ECF0F1"/>
<path d="M51.8431 160.919H72.0198V199.456L61.8475 186.884L51.8431 199.456V160.919Z" fill="#191847"/>
<path d="M59.5396 149.598H163.532H169.461H172.272C172.972 147.042 173.924 144.482 175.134 141.912C175.138 141.904 175.142 141.895 175.147 141.886H165.918H59.9975H46.0288C33.2133 141.886 32.2558 173.383 43.1605 178.084C39.4677 167.236 42.4176 149.598 52.0078 149.598H59.5396Z" fill="#DFE1E3"/>
<path d="M96.7698 122.722H135.666V119.916H96.7698V122.722Z" fill="#FFC75D"/>
<path d="M99.9006 128.03H132.535V125.928H99.9006V128.03Z" fill="#FFC75D"/>
</g>
<defs>
<linearGradient id="paint0_linear" x1="48.4688" y1="0.23486" x2="158.271" y2="189.014" gradientUnits="userSpaceOnUse">
<stop stop-color="#389371"/>
<stop offset="0.774671" stop-color="#B4F7AB"/>
</linearGradient>
<linearGradient id="paint1_linear" x1="105" y1="80.728" x2="105" y2="207.002" gradientUnits="userSpaceOnUse">
<stop stop-color="#452E81"/>
<stop offset="1" stop-color="#FFC75D"/>
</linearGradient>
<clipPath id="clip0">
<rect width="198" height="199.221" fill="white" transform="translate(0 0.234863)"/>
</clipPath>
</defs>
</svg>
