<svg width="16" height="17" viewBox="0 0 16 17" fill="none" xmlns="http://www.w3.org/2000/svg">
<path d="M10.5 2.70267H11H14C14.7984 2.70267 15.5 3.40313 15.5 4.336V6.50267H0.5V4.336C0.5 3.40313 1.20155 2.70267 2 2.70267H5H5.5H6H10H10.5ZM10.5 1.136V1.66934C10.5 1.12968 10.082 0.636003 9.5 0.636003H6.5C5.91795 0.636003 5.5 1.12968 5.5 1.66934V1.136C5.5 0.792291 5.75371 0.569336 6 0.569336H10C10.2464 0.569336 10.5 0.791928 10.5 1.136ZM8 11.236C9.41055 11.236 10.5 10.0261 10.5 8.60267C10.5 8.59152 10.4999 8.58041 10.4998 8.56934H15.5V13.936C15.5 14.8689 14.7984 15.5693 14 15.5693H2C1.20155 15.5693 0.5 14.8689 0.5 13.936V8.56934H5.50023C5.50008 8.58041 5.5 8.59153 5.5 8.60267C5.5 10.0261 6.58945 11.236 8 11.236ZM7.50097 8.56934H8.49903C8.49967 8.5804 8.5 8.59151 8.5 8.60267C8.5 8.94674 8.24645 9.16934 8 9.16934C7.75355 9.16934 7.5 8.94674 7.5 8.60267C7.5 8.59151 7.50033 8.5804 7.50097 8.56934Z" stroke="#8798D9"/>
</svg>
