<svg width="18" height="16" viewBox="0 0 18 16" fill="none" xmlns="http://www.w3.org/2000/svg">
<path d="M2.0273 4.29255L2.02724 4.29263C2.25276 4.46142 2.93697 4.96597 4.08287 5.80818C5.22798 6.64977 6.10617 7.29848 6.71695 7.75397C6.78736 7.80636 6.93257 7.91694 7.14958 8.08339L7.14968 8.08347C7.36481 8.24857 7.54074 8.3798 7.67836 8.47827L2.0273 4.29255ZM2.0273 4.29255L2.01939 4.28687M2.0273 4.29255L2.01939 4.28687M2.01939 4.28687C1.65916 4.02805 1.3048 3.6616 0.961048 3.17425L0.961025 3.17422M2.01939 4.28687L0.961025 3.17422M8.65355 9.04687L8.65473 9.04728C8.79398 9.09665 8.90434 9.11441 8.98989 9.11441H8.99999H9.01012C9.09563 9.11441 9.20608 9.09663 9.34543 9.04725L9.34647 9.04689C9.48453 8.99832 9.6439 8.92041 9.82492 8.80725C10.0233 8.68295 10.1883 8.57345 10.3216 8.47822C10.4591 8.37986 10.6349 8.24868 10.8503 8.08342C11.0678 7.91642 11.2128 7.80626 11.2831 7.75397L11.2847 7.75277C11.9009 7.29817 13.4681 6.14394 15.9854 4.29045C16.4252 3.96459 16.7916 3.57253 17.0868 3.11239L17.087 3.11216C17.3679 2.67476 17.5 2.23132 17.5 1.77393C17.5 1.43122 17.3887 1.15409 17.1608 0.91498L17.1607 0.91492C16.9308 0.673584 16.6824 0.569336 16.3928 0.569336H1.60707C1.22773 0.569336 0.987903 0.695914 0.816351 0.923829L8.65355 9.04687ZM8.65355 9.04687C8.51544 8.9983 8.35626 8.92051 8.17509 8.80725M8.65355 9.04687L9.51241 9.51855C9.33158 9.58262 9.16411 9.61441 9.01012 9.61441H8.99999H8.98989C8.8359 9.61441 8.6685 9.58265 8.48767 9.51855C8.30687 9.45496 8.11432 9.35892 7.91005 9.23123M7.91005 9.23123L8.17519 8.80731C8.17515 8.80729 8.17512 8.80727 8.17509 8.80725M7.91005 9.23123C7.70571 9.10342 7.53163 8.98797 7.38763 8.88506L7.91005 9.23123ZM8.17509 8.80725C7.97693 8.68331 7.81193 8.57372 7.67857 8.47842L8.17509 8.80725ZM0.961025 3.17422C0.62778 2.70185 0.5 2.31677 0.5 2.00816C0.5 1.54054 0.615831 1.19039 0.816304 0.923892L0.961025 3.17422Z" stroke="#8798D9"/>
<path d="M17.2889 6.23737L17.287 6.23876C15.0931 7.81368 13.4312 9.03481 12.2994 9.90346C11.9158 10.2031 11.599 10.4414 11.3513 10.6152M17.2889 6.23737L16.9954 5.83258C14.7992 7.40915 13.1316 8.63441 11.9933 9.50809C11.6116 9.80627 11.302 10.039 11.0642 10.2058C10.8264 10.3727 10.5102 10.5432 10.115 10.7171M17.2889 6.23737C17.3607 6.18528 17.4311 6.13208 17.5 6.07776M17.2889 6.23737L17.5 6.07776M11.3513 10.6152L11.0649 10.2068L11.3515 10.6151C11.3514 10.6151 11.3514 10.6151 11.3513 10.6152ZM11.3513 10.6152C11.0772 10.8076 10.7289 10.9932 10.3167 11.1746M10.3167 11.1746L10.115 10.7171M10.3167 11.1746C10.3166 11.1747 10.3165 11.1747 10.3164 11.1748L10.115 10.7171M10.3167 11.1746C9.87415 11.3698 9.43688 11.4781 9.01026 11.4781H9.00002H8.98992C8.56348 11.4781 8.12609 11.3698 7.68355 11.1747L7.88487 10.7175L7.6833 11.1746C7.27133 10.9932 6.92277 10.8076 6.64859 10.6151C6.64856 10.6151 6.64854 10.6151 6.64852 10.615L6.93583 10.2058M10.115 10.7171C9.71998 10.8913 9.35184 10.9781 9.01026 10.9781H9.00002H8.98992C8.64841 10.9781 8.28006 10.8913 7.88503 10.7171C7.49001 10.5432 7.17355 10.3727 6.93583 10.2058M6.93583 10.2058C6.69817 10.039 6.38843 9.80627 6.00678 9.50809M6.93583 10.2058L6.00678 9.50809M6.00678 9.50809C5.10271 8.80501 3.43868 7.57968 1.01461 5.83258C0.833231 5.70445 0.661698 5.56742 0.5 5.42155V6.07335M6.00678 9.50809L17.5279 14.5683C17.2132 14.9023 16.8348 15.0692 16.3929 15.0692H1.60718C1.16519 15.0692 0.786772 14.9023 0.47207 14.5683C0.157298 14.2345 0 13.8334 0 13.3644L0 5.63803C0.157627 5.79162 0.324326 5.93675 0.5 6.07335M0.5 6.07335V13.3644C0.5 13.709 0.610686 13.9865 0.835848 14.2253L0.835943 14.2254C1.06018 14.4634 1.30868 14.5692 1.60718 14.5692H16.3929C16.6913 14.5692 16.9398 14.4634 17.1641 14.2254L17.1641 14.2253C17.3894 13.9864 17.5 13.7091 17.5 13.3644V6.07776M0.5 6.07335C0.573161 6.13023 0.647879 6.18564 0.724147 6.23956C3.14727 7.986 4.80366 9.20587 5.69947 9.90251L17.5 6.07776" stroke="#8798D9"/>
</svg>
