<svg width="14" height="17" viewBox="0 0 14 17" fill="none" xmlns="http://www.w3.org/2000/svg">
<path d="M9.21055 6.1423L9.21057 6.14228C9.85214 5.50074 10.1671 4.74066 10.1671 3.83401C10.1671 2.9276 9.85218 2.16749 9.21061 1.52576C8.56885 0.884207 7.80871 0.569336 6.90218 0.569336C5.99563 0.569336 5.23539 0.884223 4.59392 1.52569C4.59391 1.52569 4.59391 1.5257 4.5939 1.5257M9.21055 6.1423L4.5939 1.5257M9.21055 6.1423C8.56903 6.78385 7.80895 7.09886 6.90218 7.09886C5.9957 7.09886 5.23565 6.78388 4.59388 6.14226M9.21055 6.1423L4.59388 6.14226M4.5939 1.5257C3.95224 2.16744 3.63733 2.92753 3.63733 3.83401C3.63733 4.74066 3.95226 5.50073 4.59388 6.14226M4.5939 1.5257L4.59388 6.14226" stroke="#8798D9"/>
<path d="M13.271 12.5506L13.271 12.5503C13.2495 12.2411 13.2063 11.9028 13.1404 11.5351C13.0752 11.1718 12.9935 10.8391 12.8964 10.5356L13.271 12.5506ZM13.271 12.5506C13.2933 12.8684 13.3044 13.195 13.3044 13.5305L13.271 12.5506ZM12.5163 9.67434L12.5163 9.67429C12.3609 9.4008 12.1871 9.17596 11.9974 8.99441C11.8205 8.82519 11.598 8.68344 11.321 8.57364C11.0754 8.47646 10.7988 8.42109 10.4864 8.4135C10.4399 8.43771 10.3701 8.47896 10.273 8.54221L12.5163 9.67434ZM12.5163 9.67434C12.6764 9.95601 12.8027 10.243 12.8964 10.5355L12.5163 9.67434ZM9.53875 9.0155L9.53844 9.0157C9.2199 9.21885 8.82417 9.39174 8.36442 9.54022C7.88228 9.6961 7.39428 9.77526 6.9018 9.77526C6.40951 9.77526 5.92148 9.6961 5.43942 9.54023L9.53875 9.0155ZM9.53875 9.0155C9.81085 8.84168 10.0557 8.68394 10.2728 8.54233L9.53875 9.0155ZM4.26536 9.01571L4.265 9.01548C3.99291 8.84165 3.74819 8.68396 3.53098 8.54235L4.26536 9.01571ZM4.26536 9.01571C4.58384 9.2188 4.97937 9.39167 5.4392 9.54015L4.26536 9.01571ZM0.663736 11.5352L0.663721 11.5353C0.597712 11.9028 0.554539 12.2408 0.533076 12.5502L0.663736 11.5352ZM0.663736 11.5352C0.728923 11.1719 0.810526 10.8392 0.907579 10.5357L0.663736 11.5352ZM3.31738 8.4135C3.00494 8.42109 2.72842 8.47646 2.48306 8.5736L3.31738 8.4135ZM3.31738 8.4135C3.36381 8.43772 3.43368 8.47897 3.53084 8.54226L3.31738 8.4135ZM1.80653 8.99422C1.61686 9.17586 1.44306 9.40078 1.28766 9.67427L1.80653 8.99422ZM1.80653 8.99422C1.98338 8.82513 2.20594 8.68332 2.48305 8.5736L1.80653 8.99422ZM0.907645 10.5355C1.00132 10.2431 1.12767 9.95589 1.28765 9.67429L0.907645 10.5355ZM0.5 13.5305C0.5 13.195 0.511039 12.8684 0.533072 12.5502L12.7439 15.0262C12.3777 15.3746 11.8764 15.5695 11.1866 15.5695H2.61777C1.92789 15.5695 1.42653 15.3746 1.06039 15.0262C0.701195 14.6841 0.5 14.2059 0.5 13.5305ZM13.3044 13.5306C13.3044 14.2062 13.1033 14.6842 12.744 15.0262L13.3044 13.5306Z" stroke="#8798D9"/>
</svg>
