<svg width="509" height="197" viewBox="0 0 509 197" fill="none" xmlns="http://www.w3.org/2000/svg">
<g opacity="0.7">
<path d="M312.076 147.756C312.023 147.756 311.978 147.74 311.94 147.708C311.908 147.671 311.892 147.625 311.892 147.572V142.868H310.356C310.303 142.868 310.258 142.852 310.22 142.82C310.188 142.783 310.172 142.737 310.172 142.684V142.348C310.172 142.295 310.188 142.249 310.22 142.212C310.258 142.175 310.303 142.156 310.356 142.156H314.212C314.271 142.156 314.316 142.175 314.348 142.212C314.386 142.244 314.404 142.289 314.404 142.348V142.684C314.404 142.737 314.386 142.783 314.348 142.82C314.311 142.852 314.266 142.868 314.212 142.868H312.684V147.572C312.684 147.625 312.666 147.671 312.628 147.708C312.591 147.74 312.546 147.756 312.492 147.756H312.076ZM318.213 147.836C317.525 147.836 316.992 147.652 316.613 147.284C316.24 146.911 316.053 146.348 316.053 145.596V142.348C316.053 142.289 316.069 142.244 316.101 142.212C316.138 142.175 316.184 142.156 316.237 142.156H316.645C316.704 142.156 316.749 142.175 316.781 142.212C316.818 142.244 316.837 142.289 316.837 142.348V145.612C316.837 146.124 316.957 146.508 317.197 146.764C317.437 147.02 317.776 147.148 318.213 147.148C318.65 147.148 318.989 147.02 319.229 146.764C319.469 146.508 319.589 146.124 319.589 145.612V142.348C319.589 142.289 319.605 142.244 319.637 142.212C319.674 142.175 319.72 142.156 319.773 142.156H320.189C320.242 142.156 320.285 142.175 320.317 142.212C320.354 142.249 320.373 142.295 320.373 142.348V145.596C320.373 146.348 320.184 146.911 319.805 147.284C319.432 147.652 318.901 147.836 318.213 147.836ZM322.694 147.756C322.641 147.756 322.596 147.74 322.558 147.708C322.526 147.671 322.51 147.625 322.51 147.572V142.348C322.51 142.289 322.526 142.244 322.558 142.212C322.596 142.175 322.641 142.156 322.694 142.156H325.998C326.052 142.156 326.094 142.175 326.126 142.212C326.164 142.244 326.182 142.289 326.182 142.348V142.652C326.182 142.705 326.166 142.751 326.134 142.788C326.102 142.82 326.057 142.836 325.998 142.836H323.278V144.588H325.822C325.876 144.588 325.918 144.607 325.95 144.644C325.988 144.676 326.006 144.721 326.006 144.78V145.076C326.006 145.129 325.988 145.175 325.95 145.212C325.918 145.244 325.876 145.26 325.822 145.26H323.278V147.076H326.062C326.121 147.076 326.166 147.092 326.198 147.124C326.23 147.156 326.246 147.201 326.246 147.26V147.572C326.246 147.625 326.228 147.671 326.19 147.708C326.158 147.74 326.116 147.756 326.062 147.756H322.694Z" fill="#58666E"/>
<path d="M280.235 147.756C280.182 147.756 280.136 147.74 280.099 147.708C280.067 147.671 280.051 147.625 280.051 147.572V142.348C280.051 142.289 280.067 142.244 280.099 142.212C280.136 142.175 280.182 142.156 280.235 142.156H280.635C280.72 142.156 280.79 142.199 280.843 142.284L282.531 145.516L284.235 142.284C284.246 142.252 284.267 142.223 284.299 142.196C284.336 142.169 284.382 142.156 284.435 142.156H284.827C284.886 142.156 284.931 142.175 284.963 142.212C285 142.244 285.019 142.289 285.019 142.348V147.572C285.019 147.625 285 147.671 284.963 147.708C284.926 147.74 284.88 147.756 284.827 147.756H284.435C284.382 147.756 284.336 147.74 284.299 147.708C284.267 147.671 284.251 147.625 284.251 147.572V143.636L282.915 146.244C282.862 146.356 282.776 146.412 282.659 146.412H282.411C282.294 146.412 282.208 146.356 282.155 146.244L280.811 143.636V147.572C280.811 147.625 280.792 147.671 280.755 147.708C280.723 147.74 280.68 147.756 280.627 147.756H280.235ZM289.219 147.836C288.52 147.836 287.979 147.655 287.595 147.292C287.216 146.924 287.016 146.372 286.995 145.636C286.989 145.476 286.987 145.249 286.987 144.956C286.987 144.663 286.989 144.439 286.995 144.284C287.016 143.564 287.224 143.017 287.619 142.644C288.013 142.265 288.547 142.076 289.219 142.076C289.885 142.076 290.416 142.265 290.811 142.644C291.205 143.017 291.413 143.564 291.435 144.284C291.445 144.593 291.451 144.817 291.451 144.956C291.451 145.089 291.445 145.316 291.435 145.636C291.413 146.372 291.211 146.924 290.827 147.292C290.448 147.655 289.912 147.836 289.219 147.836ZM289.219 147.156C289.64 147.156 289.976 147.028 290.227 146.772C290.477 146.516 290.613 146.124 290.635 145.596C290.645 145.276 290.651 145.063 290.651 144.956C290.651 144.839 290.645 144.625 290.635 144.316C290.613 143.788 290.475 143.396 290.219 143.14C289.968 142.884 289.635 142.756 289.219 142.756C288.797 142.756 288.459 142.884 288.203 143.14C287.952 143.396 287.816 143.788 287.795 144.316C287.789 144.471 287.787 144.684 287.787 144.956C287.787 145.223 287.789 145.436 287.795 145.596C287.816 146.124 287.952 146.516 288.203 146.772C288.459 147.028 288.797 147.156 289.219 147.156ZM293.601 147.756C293.547 147.756 293.502 147.74 293.465 147.708C293.433 147.671 293.417 147.625 293.417 147.572V142.348C293.417 142.289 293.433 142.244 293.465 142.212C293.502 142.175 293.547 142.156 293.601 142.156H293.969C294.065 142.156 294.131 142.193 294.169 142.268L296.825 146.348V142.348C296.825 142.289 296.841 142.244 296.873 142.212C296.91 142.175 296.955 142.156 297.009 142.156H297.393C297.451 142.156 297.497 142.175 297.529 142.212C297.566 142.244 297.585 142.289 297.585 142.348V147.564C297.585 147.617 297.566 147.663 297.529 147.7C297.497 147.737 297.454 147.756 297.401 147.756H297.017C296.937 147.756 296.873 147.719 296.825 147.644L294.177 143.604V147.572C294.177 147.625 294.158 147.671 294.121 147.708C294.083 147.74 294.038 147.756 293.985 147.756H293.601Z" fill="#58666E"/>
<path d="M252.441 147.836C251.998 147.836 251.614 147.767 251.289 147.628C250.969 147.489 250.724 147.308 250.553 147.084C250.382 146.855 250.292 146.609 250.281 146.348C250.281 146.305 250.297 146.268 250.329 146.236C250.366 146.199 250.409 146.18 250.457 146.18H250.865C250.966 146.18 251.036 146.233 251.073 146.34C251.121 146.564 251.257 146.756 251.481 146.916C251.71 147.076 252.03 147.156 252.441 147.156C252.884 147.156 253.217 147.079 253.441 146.924C253.665 146.764 253.777 146.543 253.777 146.26C253.777 146.079 253.721 145.932 253.609 145.82C253.502 145.708 253.342 145.609 253.129 145.524C252.916 145.439 252.596 145.332 252.169 145.204C251.753 145.087 251.422 144.961 251.177 144.828C250.932 144.695 250.748 144.529 250.625 144.332C250.502 144.135 250.441 143.887 250.441 143.588C250.441 143.3 250.518 143.041 250.673 142.812C250.833 142.583 251.06 142.404 251.353 142.276C251.646 142.143 251.996 142.076 252.401 142.076C252.817 142.076 253.174 142.151 253.473 142.3C253.772 142.444 253.998 142.628 254.153 142.852C254.308 143.076 254.39 143.3 254.401 143.524C254.401 143.567 254.385 143.604 254.353 143.636C254.326 143.668 254.286 143.684 254.233 143.684H253.809C253.697 143.684 253.628 143.633 253.601 143.532C253.569 143.308 253.444 143.124 253.225 142.98C253.006 142.831 252.732 142.756 252.401 142.756C252.038 142.756 251.753 142.825 251.545 142.964C251.337 143.103 251.233 143.308 251.233 143.58C251.233 143.761 251.281 143.911 251.377 144.028C251.478 144.145 251.63 144.249 251.833 144.34C252.036 144.425 252.332 144.524 252.721 144.636C253.174 144.759 253.532 144.887 253.793 145.02C254.054 145.148 254.249 145.311 254.377 145.508C254.505 145.7 254.569 145.945 254.569 146.244C254.569 146.74 254.377 147.129 253.993 147.412C253.609 147.695 253.092 147.836 252.441 147.836ZM258.529 147.836C257.841 147.836 257.308 147.652 256.929 147.284C256.556 146.911 256.369 146.348 256.369 145.596V142.348C256.369 142.289 256.385 142.244 256.417 142.212C256.455 142.175 256.5 142.156 256.553 142.156H256.961C257.02 142.156 257.065 142.175 257.097 142.212C257.135 142.244 257.153 142.289 257.153 142.348V145.612C257.153 146.124 257.273 146.508 257.513 146.764C257.753 147.02 258.092 147.148 258.529 147.148C258.967 147.148 259.305 147.02 259.545 146.764C259.785 146.508 259.905 146.124 259.905 145.612V142.348C259.905 142.289 259.921 142.244 259.953 142.212C259.991 142.175 260.036 142.156 260.089 142.156H260.505C260.559 142.156 260.601 142.175 260.633 142.212C260.671 142.249 260.689 142.295 260.689 142.348V145.596C260.689 146.348 260.5 146.911 260.121 147.284C259.748 147.652 259.217 147.836 258.529 147.836ZM263.011 147.756C262.957 147.756 262.912 147.74 262.875 147.708C262.843 147.671 262.827 147.625 262.827 147.572V142.348C262.827 142.289 262.843 142.244 262.875 142.212C262.912 142.175 262.957 142.156 263.011 142.156H263.379C263.475 142.156 263.541 142.193 263.579 142.268L266.235 146.348V142.348C266.235 142.289 266.251 142.244 266.283 142.212C266.32 142.175 266.365 142.156 266.419 142.156H266.803C266.861 142.156 266.907 142.175 266.939 142.212C266.976 142.244 266.995 142.289 266.995 142.348V147.564C266.995 147.617 266.976 147.663 266.939 147.7C266.907 147.737 266.864 147.756 266.811 147.756H266.427C266.347 147.756 266.283 147.719 266.235 147.644L263.587 143.604V147.572C263.587 147.625 263.568 147.671 263.531 147.708C263.493 147.74 263.448 147.756 263.395 147.756H263.011Z" fill="#E6364B"/>
<path d="M90.5762 147.756C90.5229 147.756 90.4776 147.74 90.4402 147.708C90.4082 147.671 90.3922 147.625 90.3922 147.572V142.868H88.8562C88.8029 142.868 88.7575 142.852 88.7202 142.82C88.6882 142.783 88.6722 142.737 88.6722 142.684V142.348C88.6722 142.295 88.6882 142.249 88.7202 142.212C88.7575 142.175 88.8029 142.156 88.8562 142.156H92.7122C92.7709 142.156 92.8162 142.175 92.8482 142.212C92.8856 142.244 92.9042 142.289 92.9042 142.348V142.684C92.9042 142.737 92.8856 142.783 92.8482 142.82C92.8109 142.852 92.7656 142.868 92.7122 142.868H91.1842V147.572C91.1842 147.625 91.1656 147.671 91.1282 147.708C91.0909 147.74 91.0456 147.756 90.9922 147.756H90.5762ZM96.713 147.836C96.025 147.836 95.4917 147.652 95.113 147.284C94.7397 146.911 94.553 146.348 94.553 145.596V142.348C94.553 142.289 94.569 142.244 94.601 142.212C94.6384 142.175 94.6837 142.156 94.737 142.156H95.145C95.2037 142.156 95.249 142.175 95.281 142.212C95.3184 142.244 95.337 142.289 95.337 142.348V145.612C95.337 146.124 95.457 146.508 95.697 146.764C95.937 147.02 96.2757 147.148 96.713 147.148C97.1504 147.148 97.489 147.02 97.729 146.764C97.969 146.508 98.089 146.124 98.089 145.612V142.348C98.089 142.289 98.105 142.244 98.137 142.212C98.1744 142.175 98.2197 142.156 98.273 142.156H98.689C98.7424 142.156 98.785 142.175 98.817 142.212C98.8544 142.249 98.873 142.295 98.873 142.348V145.596C98.873 146.348 98.6837 146.911 98.305 147.284C97.9317 147.652 97.401 147.836 96.713 147.836ZM101.194 147.756C101.141 147.756 101.096 147.74 101.058 147.708C101.026 147.671 101.01 147.625 101.01 147.572V142.348C101.01 142.289 101.026 142.244 101.058 142.212C101.096 142.175 101.141 142.156 101.194 142.156H104.498C104.552 142.156 104.594 142.175 104.626 142.212C104.664 142.244 104.682 142.289 104.682 142.348V142.652C104.682 142.705 104.666 142.751 104.634 142.788C104.602 142.82 104.557 142.836 104.498 142.836H101.778V144.588H104.322C104.376 144.588 104.418 144.607 104.45 144.644C104.488 144.676 104.506 144.721 104.506 144.78V145.076C104.506 145.129 104.488 145.175 104.45 145.212C104.418 145.244 104.376 145.26 104.322 145.26H101.778V147.076H104.562C104.621 147.076 104.666 147.092 104.698 147.124C104.73 147.156 104.746 147.201 104.746 147.26V147.572C104.746 147.625 104.728 147.671 104.69 147.708C104.658 147.74 104.616 147.756 104.562 147.756H101.194Z" fill="#58666E"/>
<path d="M56.735 147.756C56.6817 147.756 56.6364 147.74 56.599 147.708C56.567 147.671 56.551 147.625 56.551 147.572V142.348C56.551 142.289 56.567 142.244 56.599 142.212C56.6364 142.175 56.6817 142.156 56.735 142.156H57.135C57.2204 142.156 57.2897 142.199 57.343 142.284L59.031 145.516L60.735 142.284C60.7457 142.252 60.767 142.223 60.799 142.196C60.8364 142.169 60.8817 142.156 60.935 142.156H61.327C61.3857 142.156 61.431 142.175 61.463 142.212C61.5004 142.244 61.519 142.289 61.519 142.348V147.572C61.519 147.625 61.5004 147.671 61.463 147.708C61.4257 147.74 61.3804 147.756 61.327 147.756H60.935C60.8817 147.756 60.8364 147.74 60.799 147.708C60.767 147.671 60.751 147.625 60.751 147.572V143.636L59.415 146.244C59.3617 146.356 59.2764 146.412 59.159 146.412H58.911C58.7937 146.412 58.7084 146.356 58.655 146.244L57.311 143.636V147.572C57.311 147.625 57.2924 147.671 57.255 147.708C57.223 147.74 57.1804 147.756 57.127 147.756H56.735ZM65.7186 147.836C65.0199 147.836 64.4786 147.655 64.0946 147.292C63.7159 146.924 63.5159 146.372 63.4946 145.636C63.4893 145.476 63.4866 145.249 63.4866 144.956C63.4866 144.663 63.4893 144.439 63.4946 144.284C63.5159 143.564 63.7239 143.017 64.1186 142.644C64.5133 142.265 65.0466 142.076 65.7186 142.076C66.3853 142.076 66.9159 142.265 67.3106 142.644C67.7053 143.017 67.9133 143.564 67.9346 144.284C67.9453 144.593 67.9506 144.817 67.9506 144.956C67.9506 145.089 67.9453 145.316 67.9346 145.636C67.9133 146.372 67.7106 146.924 67.3266 147.292C66.9479 147.655 66.4119 147.836 65.7186 147.836ZM65.7186 147.156C66.1399 147.156 66.4759 147.028 66.7266 146.772C66.9773 146.516 67.1133 146.124 67.1346 145.596C67.1453 145.276 67.1506 145.063 67.1506 144.956C67.1506 144.839 67.1453 144.625 67.1346 144.316C67.1133 143.788 66.9746 143.396 66.7186 143.14C66.4679 142.884 66.1346 142.756 65.7186 142.756C65.2973 142.756 64.9586 142.884 64.7026 143.14C64.4519 143.396 64.3159 143.788 64.2946 144.316C64.2893 144.471 64.2866 144.684 64.2866 144.956C64.2866 145.223 64.2893 145.436 64.2946 145.596C64.3159 146.124 64.4519 146.516 64.7026 146.772C64.9586 147.028 65.2973 147.156 65.7186 147.156ZM70.1007 147.756C70.0473 147.756 70.002 147.74 69.9647 147.708C69.9327 147.671 69.9167 147.625 69.9167 147.572V142.348C69.9167 142.289 69.9327 142.244 69.9647 142.212C70.002 142.175 70.0473 142.156 70.1007 142.156H70.4687C70.5647 142.156 70.6313 142.193 70.6687 142.268L73.3247 146.348V142.348C73.3247 142.289 73.3407 142.244 73.3727 142.212C73.41 142.175 73.4553 142.156 73.5087 142.156H73.8927C73.9513 142.156 73.9967 142.175 74.0287 142.212C74.066 142.244 74.0847 142.289 74.0847 142.348V147.564C74.0847 147.617 74.066 147.663 74.0287 147.7C73.9967 147.737 73.954 147.756 73.9007 147.756H73.5167C73.4367 147.756 73.3727 147.719 73.3247 147.644L70.6767 143.604V147.572C70.6767 147.625 70.658 147.671 70.6207 147.708C70.5833 147.74 70.538 147.756 70.4847 147.756H70.1007Z" fill="#58666E"/>
<path d="M30.4409 147.836C29.9982 147.836 29.6142 147.767 29.2889 147.628C28.9689 147.489 28.7235 147.308 28.5529 147.084C28.3822 146.855 28.2915 146.609 28.2809 146.348C28.2809 146.305 28.2969 146.268 28.3289 146.236C28.3662 146.199 28.4089 146.18 28.4569 146.18H28.8649C28.9662 146.18 29.0355 146.233 29.0729 146.34C29.1209 146.564 29.2569 146.756 29.4809 146.916C29.7102 147.076 30.0302 147.156 30.4409 147.156C30.8835 147.156 31.2169 147.079 31.4409 146.924C31.6649 146.764 31.7769 146.543 31.7769 146.26C31.7769 146.079 31.7209 145.932 31.6089 145.82C31.5022 145.708 31.3422 145.609 31.1289 145.524C30.9155 145.439 30.5955 145.332 30.1689 145.204C29.7529 145.087 29.4222 144.961 29.1769 144.828C28.9315 144.695 28.7475 144.529 28.6249 144.332C28.5022 144.135 28.4409 143.887 28.4409 143.588C28.4409 143.3 28.5182 143.041 28.6729 142.812C28.8329 142.583 29.0595 142.404 29.3529 142.276C29.6462 142.143 29.9955 142.076 30.4009 142.076C30.8169 142.076 31.1742 142.151 31.4729 142.3C31.7715 142.444 31.9982 142.628 32.1529 142.852C32.3075 143.076 32.3902 143.3 32.4009 143.524C32.4009 143.567 32.3849 143.604 32.3529 143.636C32.3262 143.668 32.2862 143.684 32.2329 143.684H31.8089C31.6969 143.684 31.6275 143.633 31.6009 143.532C31.5689 143.308 31.4435 143.124 31.2249 142.98C31.0062 142.831 30.7315 142.756 30.4009 142.756C30.0382 142.756 29.7529 142.825 29.5449 142.964C29.3369 143.103 29.2329 143.308 29.2329 143.58C29.2329 143.761 29.2809 143.911 29.3769 144.028C29.4782 144.145 29.6302 144.249 29.8329 144.34C30.0355 144.425 30.3315 144.524 30.7209 144.636C31.1742 144.759 31.5315 144.887 31.7929 145.02C32.0542 145.148 32.2489 145.311 32.3769 145.508C32.5049 145.7 32.5689 145.945 32.5689 146.244C32.5689 146.74 32.3769 147.129 31.9929 147.412C31.6089 147.695 31.0915 147.836 30.4409 147.836ZM36.5294 147.836C35.8414 147.836 35.3081 147.652 34.9294 147.284C34.5561 146.911 34.3694 146.348 34.3694 145.596V142.348C34.3694 142.289 34.3854 142.244 34.4174 142.212C34.4548 142.175 34.5001 142.156 34.5534 142.156H34.9614C35.0201 142.156 35.0654 142.175 35.0974 142.212C35.1348 142.244 35.1534 142.289 35.1534 142.348V145.612C35.1534 146.124 35.2734 146.508 35.5134 146.764C35.7534 147.02 36.0921 147.148 36.5294 147.148C36.9668 147.148 37.3054 147.02 37.5454 146.764C37.7854 146.508 37.9054 146.124 37.9054 145.612V142.348C37.9054 142.289 37.9214 142.244 37.9534 142.212C37.9908 142.175 38.0361 142.156 38.0894 142.156H38.5054C38.5588 142.156 38.6014 142.175 38.6334 142.212C38.6708 142.249 38.6894 142.295 38.6894 142.348V145.596C38.6894 146.348 38.5001 146.911 38.1214 147.284C37.7481 147.652 37.2174 147.836 36.5294 147.836ZM41.0108 147.756C40.9575 147.756 40.9121 147.74 40.8748 147.708C40.8428 147.671 40.8268 147.625 40.8268 147.572V142.348C40.8268 142.289 40.8428 142.244 40.8748 142.212C40.9121 142.175 40.9575 142.156 41.0108 142.156H41.3788C41.4748 142.156 41.5415 142.193 41.5788 142.268L44.2348 146.348V142.348C44.2348 142.289 44.2508 142.244 44.2828 142.212C44.3201 142.175 44.3655 142.156 44.4188 142.156H44.8028C44.8615 142.156 44.9068 142.175 44.9388 142.212C44.9761 142.244 44.9948 142.289 44.9948 142.348V147.564C44.9948 147.617 44.9761 147.663 44.9388 147.7C44.9068 147.737 44.8641 147.756 44.8108 147.756H44.4268C44.3468 147.756 44.2828 147.719 44.2348 147.644L41.5868 143.604V147.572C41.5868 147.625 41.5681 147.671 41.5308 147.708C41.4935 147.74 41.4481 147.756 41.3948 147.756H41.0108Z" fill="#E6364B"/>
<path d="M220.867 147.836C220.424 147.836 220.04 147.767 219.715 147.628C219.395 147.489 219.149 147.308 218.979 147.084C218.808 146.855 218.717 146.609 218.707 146.348C218.707 146.305 218.723 146.268 218.755 146.236C218.792 146.199 218.835 146.18 218.883 146.18H219.291C219.392 146.18 219.461 146.233 219.499 146.34C219.547 146.564 219.683 146.756 219.907 146.916C220.136 147.076 220.456 147.156 220.867 147.156C221.309 147.156 221.643 147.079 221.867 146.924C222.091 146.764 222.203 146.543 222.203 146.26C222.203 146.079 222.147 145.932 222.035 145.82C221.928 145.708 221.768 145.609 221.555 145.524C221.341 145.439 221.021 145.332 220.595 145.204C220.179 145.087 219.848 144.961 219.603 144.828C219.357 144.695 219.173 144.529 219.051 144.332C218.928 144.135 218.867 143.887 218.867 143.588C218.867 143.3 218.944 143.041 219.099 142.812C219.259 142.583 219.485 142.404 219.779 142.276C220.072 142.143 220.421 142.076 220.827 142.076C221.243 142.076 221.6 142.151 221.899 142.3C222.197 142.444 222.424 142.628 222.579 142.852C222.733 143.076 222.816 143.3 222.827 143.524C222.827 143.567 222.811 143.604 222.779 143.636C222.752 143.668 222.712 143.684 222.659 143.684H222.235C222.123 143.684 222.053 143.633 222.027 143.532C221.995 143.308 221.869 143.124 221.651 142.98C221.432 142.831 221.157 142.756 220.827 142.756C220.464 142.756 220.179 142.825 219.971 142.964C219.763 143.103 219.659 143.308 219.659 143.58C219.659 143.761 219.707 143.911 219.803 144.028C219.904 144.145 220.056 144.249 220.259 144.34C220.461 144.425 220.757 144.524 221.147 144.636C221.6 144.759 221.957 144.887 222.219 145.02C222.48 145.148 222.675 145.311 222.803 145.508C222.931 145.7 222.995 145.945 222.995 146.244C222.995 146.74 222.803 147.129 222.419 147.412C222.035 147.695 221.517 147.836 220.867 147.836ZM224.389 147.756C224.346 147.756 224.309 147.74 224.277 147.708C224.245 147.676 224.229 147.639 224.229 147.596C224.229 147.553 224.232 147.524 224.237 147.508L226.221 142.332C226.264 142.215 226.349 142.156 226.477 142.156H227.021C227.149 142.156 227.234 142.215 227.277 142.332L229.253 147.508L229.269 147.596C229.269 147.639 229.253 147.676 229.221 147.708C229.189 147.74 229.152 147.756 229.109 147.756H228.701C228.642 147.756 228.597 147.743 228.565 147.716C228.533 147.684 228.512 147.652 228.501 147.62L228.061 146.484H225.437L224.997 147.62C224.986 147.652 224.962 147.684 224.925 147.716C224.893 147.743 224.85 147.756 224.797 147.756H224.389ZM227.829 145.796L226.749 142.956L225.669 145.796H227.829ZM231.739 147.756C231.685 147.756 231.64 147.74 231.603 147.708C231.571 147.671 231.555 147.625 231.555 147.572V142.868H230.019C229.965 142.868 229.92 142.852 229.883 142.82C229.851 142.783 229.835 142.737 229.835 142.684V142.348C229.835 142.295 229.851 142.249 229.883 142.212C229.92 142.175 229.965 142.156 230.019 142.156H233.875C233.933 142.156 233.979 142.175 234.011 142.212C234.048 142.244 234.067 142.289 234.067 142.348V142.684C234.067 142.737 234.048 142.783 234.011 142.82C233.973 142.852 233.928 142.868 233.875 142.868H232.347V147.572C232.347 147.625 232.328 147.671 232.291 147.708C232.253 147.74 232.208 147.756 232.155 147.756H231.739Z" fill="#58666E"/>
<path d="M190.348 147.756C190.295 147.756 190.25 147.74 190.212 147.708C190.18 147.671 190.164 147.625 190.164 147.572V142.348C190.164 142.289 190.18 142.244 190.212 142.212C190.25 142.175 190.295 142.156 190.348 142.156H193.612C193.671 142.156 193.716 142.175 193.748 142.212C193.786 142.244 193.804 142.289 193.804 142.348V142.668C193.804 142.721 193.786 142.767 193.748 142.804C193.716 142.836 193.671 142.852 193.612 142.852H190.94V144.716H193.452C193.511 144.716 193.556 144.735 193.588 144.772C193.626 144.804 193.644 144.849 193.644 144.908V145.228C193.644 145.281 193.626 145.327 193.588 145.364C193.551 145.396 193.506 145.412 193.452 145.412H190.94V147.572C190.94 147.625 190.922 147.671 190.884 147.708C190.847 147.74 190.802 147.756 190.748 147.756H190.348ZM195.82 147.756C195.767 147.756 195.722 147.74 195.684 147.708C195.652 147.671 195.636 147.625 195.636 147.572V142.348C195.636 142.289 195.652 142.244 195.684 142.212C195.722 142.175 195.767 142.156 195.82 142.156H197.772C198.386 142.156 198.866 142.3 199.212 142.588C199.559 142.876 199.732 143.292 199.732 143.836C199.732 144.241 199.631 144.575 199.428 144.836C199.231 145.097 198.951 145.279 198.588 145.38L199.82 147.508C199.836 147.54 199.844 147.569 199.844 147.596C199.844 147.639 199.826 147.676 199.788 147.708C199.756 147.74 199.719 147.756 199.676 147.756H199.292C199.212 147.756 199.148 147.737 199.1 147.7C199.058 147.663 199.018 147.609 198.98 147.54L197.82 145.508H196.42V147.572C196.42 147.625 196.402 147.671 196.364 147.708C196.327 147.74 196.282 147.756 196.228 147.756H195.82ZM197.74 144.828C198.535 144.828 198.932 144.495 198.932 143.828C198.932 143.161 198.535 142.828 197.74 142.828H196.42V144.828H197.74ZM201.862 147.756C201.809 147.756 201.764 147.74 201.726 147.708C201.694 147.671 201.678 147.625 201.678 147.572V142.34C201.678 142.287 201.694 142.244 201.726 142.212C201.764 142.175 201.809 142.156 201.862 142.156H202.286C202.34 142.156 202.382 142.175 202.414 142.212C202.452 142.244 202.47 142.287 202.47 142.34V147.572C202.47 147.625 202.452 147.671 202.414 147.708C202.382 147.74 202.34 147.756 202.286 147.756H201.862Z" fill="#58666E"/>
<path d="M156.147 147.756C156.093 147.756 156.048 147.74 156.011 147.708C155.979 147.671 155.963 147.625 155.963 147.572V142.868H154.427C154.373 142.868 154.328 142.852 154.291 142.82C154.259 142.783 154.243 142.737 154.243 142.684V142.348C154.243 142.295 154.259 142.249 154.291 142.212C154.328 142.175 154.373 142.156 154.427 142.156H158.283C158.341 142.156 158.387 142.175 158.419 142.212C158.456 142.244 158.475 142.289 158.475 142.348V142.684C158.475 142.737 158.456 142.783 158.419 142.82C158.381 142.852 158.336 142.868 158.283 142.868H156.755V147.572C156.755 147.625 156.736 147.671 156.699 147.708C156.661 147.74 156.616 147.756 156.563 147.756H156.147ZM160.355 147.756C160.302 147.756 160.257 147.74 160.219 147.708C160.187 147.671 160.171 147.625 160.171 147.572V142.348C160.171 142.289 160.187 142.244 160.219 142.212C160.257 142.175 160.302 142.156 160.355 142.156H160.763C160.822 142.156 160.867 142.175 160.899 142.212C160.937 142.244 160.955 142.289 160.955 142.348V144.556H163.707V142.348C163.707 142.289 163.723 142.244 163.755 142.212C163.793 142.175 163.838 142.156 163.891 142.156H164.299C164.358 142.156 164.403 142.175 164.435 142.212C164.473 142.244 164.491 142.289 164.491 142.348V147.572C164.491 147.625 164.473 147.671 164.435 147.708C164.398 147.74 164.353 147.756 164.299 147.756H163.891C163.838 147.756 163.793 147.74 163.755 147.708C163.723 147.671 163.707 147.625 163.707 147.572V145.276H160.955V147.572C160.955 147.625 160.937 147.671 160.899 147.708C160.862 147.74 160.817 147.756 160.763 147.756H160.355ZM168.794 147.836C168.106 147.836 167.573 147.652 167.194 147.284C166.821 146.911 166.634 146.348 166.634 145.596V142.348C166.634 142.289 166.65 142.244 166.682 142.212C166.72 142.175 166.765 142.156 166.818 142.156H167.226C167.285 142.156 167.33 142.175 167.362 142.212C167.4 142.244 167.418 142.289 167.418 142.348V145.612C167.418 146.124 167.538 146.508 167.778 146.764C168.018 147.02 168.357 147.148 168.794 147.148C169.232 147.148 169.57 147.02 169.81 146.764C170.05 146.508 170.17 146.124 170.17 145.612V142.348C170.17 142.289 170.186 142.244 170.218 142.212C170.256 142.175 170.301 142.156 170.354 142.156H170.77C170.824 142.156 170.866 142.175 170.898 142.212C170.936 142.249 170.954 142.295 170.954 142.348V145.596C170.954 146.348 170.765 146.911 170.386 147.284C170.013 147.652 169.482 147.836 168.794 147.836Z" fill="#58666E"/>
<path d="M124.772 147.756C124.634 147.756 124.551 147.684 124.524 147.54L123.492 142.404C123.487 142.377 123.484 142.348 123.484 142.316C123.484 142.273 123.5 142.236 123.532 142.204C123.564 142.172 123.602 142.156 123.644 142.156H124.06C124.172 142.156 124.236 142.201 124.252 142.292L125.068 146.42L125.932 143.588C125.98 143.46 126.066 143.396 126.188 143.396H126.484C126.554 143.396 126.607 143.415 126.644 143.452C126.687 143.489 126.716 143.535 126.732 143.588L127.604 146.42L128.412 142.292C128.428 142.201 128.495 142.156 128.612 142.156H129.028C129.071 142.156 129.108 142.172 129.14 142.204C129.172 142.236 129.188 142.273 129.188 142.316L129.18 142.404L128.148 147.54C128.116 147.684 128.034 147.756 127.9 147.756H127.588C127.45 147.756 127.362 147.689 127.324 147.556L126.332 144.508L125.348 147.556C125.306 147.689 125.218 147.756 125.084 147.756H124.772ZM131.219 147.756C131.165 147.756 131.12 147.74 131.083 147.708C131.051 147.671 131.035 147.625 131.035 147.572V142.348C131.035 142.289 131.051 142.244 131.083 142.212C131.12 142.175 131.165 142.156 131.219 142.156H134.523C134.576 142.156 134.619 142.175 134.651 142.212C134.688 142.244 134.707 142.289 134.707 142.348V142.652C134.707 142.705 134.691 142.751 134.659 142.788C134.627 142.82 134.581 142.836 134.523 142.836H131.803V144.588H134.347C134.4 144.588 134.443 144.607 134.475 144.644C134.512 144.676 134.531 144.721 134.531 144.78V145.076C134.531 145.129 134.512 145.175 134.475 145.212C134.443 145.244 134.4 145.26 134.347 145.26H131.803V147.076H134.587C134.645 147.076 134.691 147.092 134.723 147.124C134.755 147.156 134.771 147.201 134.771 147.26V147.572C134.771 147.625 134.752 147.671 134.715 147.708C134.683 147.74 134.64 147.756 134.587 147.756H131.219ZM136.87 147.756C136.817 147.756 136.772 147.74 136.734 147.708C136.702 147.671 136.686 147.625 136.686 147.572V142.348C136.686 142.289 136.702 142.244 136.734 142.212C136.772 142.175 136.817 142.156 136.87 142.156H138.686C139.492 142.156 140.073 142.337 140.43 142.7C140.788 143.057 140.974 143.599 140.99 144.324C140.996 144.479 140.998 144.687 140.998 144.948C140.998 145.209 140.996 145.42 140.99 145.58C140.974 146.087 140.889 146.5 140.734 146.82C140.585 147.135 140.348 147.369 140.022 147.524C139.697 147.679 139.265 147.756 138.726 147.756H136.87ZM138.686 147.076C139.054 147.076 139.345 147.025 139.558 146.924C139.777 146.823 139.934 146.663 140.03 146.444C140.132 146.22 140.188 145.921 140.198 145.548C140.209 145.228 140.214 145.028 140.214 144.948C140.214 144.863 140.209 144.665 140.198 144.356C140.188 143.828 140.062 143.444 139.822 143.204C139.582 142.959 139.19 142.836 138.646 142.836H137.47V147.076H138.686Z" fill="#58666E"/>
<path d="M321.068 162.442C321.015 162.442 320.97 162.426 320.932 162.394C320.9 162.357 320.884 162.311 320.884 162.258V157.778L319.556 158.802C319.519 158.834 319.479 158.85 319.436 158.85C319.388 158.85 319.343 158.823 319.3 158.77L319.092 158.506C319.066 158.469 319.052 158.431 319.052 158.394C319.052 158.33 319.079 158.279 319.132 158.242L320.876 156.898C320.935 156.861 321.004 156.842 321.084 156.842H321.492C321.546 156.842 321.588 156.861 321.62 156.898C321.658 156.93 321.676 156.973 321.676 157.026V162.258C321.676 162.311 321.658 162.357 321.62 162.394C321.588 162.426 321.546 162.442 321.492 162.442H321.068ZM324.69 162.442C324.637 162.442 324.592 162.426 324.554 162.394C324.522 162.357 324.506 162.311 324.506 162.258V157.778L323.178 158.802C323.141 158.834 323.101 158.85 323.058 158.85C323.01 158.85 322.965 158.823 322.922 158.77L322.714 158.506C322.688 158.469 322.674 158.431 322.674 158.394C322.674 158.33 322.701 158.279 322.754 158.242L324.498 156.898C324.557 156.861 324.626 156.842 324.706 156.842H325.114C325.168 156.842 325.21 156.861 325.242 156.898C325.28 156.93 325.298 156.973 325.298 157.026V162.258C325.298 162.311 325.28 162.357 325.242 162.394C325.21 162.426 325.168 162.442 325.114 162.442H324.69Z" fill="#8898A0"/>
<path d="M287.471 162.442C287.417 162.442 287.372 162.426 287.335 162.394C287.303 162.357 287.287 162.311 287.287 162.258V157.778L285.959 158.802C285.921 158.834 285.881 158.85 285.839 158.85C285.791 158.85 285.745 158.823 285.703 158.77L285.495 158.506C285.468 158.469 285.455 158.431 285.455 158.394C285.455 158.33 285.481 158.279 285.535 158.242L287.279 156.898C287.337 156.861 287.407 156.842 287.487 156.842H287.895C287.948 156.842 287.991 156.861 288.023 156.898C288.06 156.93 288.079 156.973 288.079 157.026V162.258C288.079 162.311 288.06 162.357 288.023 162.394C287.991 162.426 287.948 162.442 287.895 162.442H287.471ZM291.42 162.522C290.732 162.522 290.228 162.322 289.908 161.922C289.588 161.522 289.418 160.997 289.396 160.346C289.391 160.202 289.388 159.97 289.388 159.65C289.388 159.319 289.391 159.079 289.396 158.93C289.412 158.29 289.583 157.77 289.908 157.37C290.234 156.965 290.738 156.762 291.42 156.762C292.108 156.762 292.615 156.965 292.94 157.37C293.266 157.77 293.436 158.29 293.452 158.93C293.463 159.229 293.468 159.469 293.468 159.65C293.468 159.826 293.463 160.058 293.452 160.346C293.431 160.997 293.26 161.522 292.94 161.922C292.62 162.322 292.114 162.522 291.42 162.522ZM291.42 161.834C291.82 161.834 292.122 161.701 292.324 161.434C292.532 161.167 292.642 160.791 292.652 160.306C292.663 159.997 292.668 159.773 292.668 159.634C292.668 159.485 292.663 159.266 292.652 158.978C292.642 158.498 292.535 158.122 292.332 157.85C292.13 157.578 291.826 157.442 291.42 157.442C291.02 157.442 290.716 157.578 290.508 157.85C290.306 158.122 290.199 158.498 290.188 158.978L290.18 159.634L290.188 160.306C290.199 160.791 290.306 161.167 290.508 161.434C290.716 161.701 291.02 161.834 291.42 161.834Z" fill="#8898A0"/>
<path d="M255.721 162.442C255.673 162.442 255.633 162.426 255.601 162.394C255.574 162.357 255.561 162.314 255.561 162.266C255.561 162.229 255.571 162.194 255.593 162.162L256.817 160.458C256.689 160.49 256.545 160.506 256.385 160.506C256.006 160.501 255.67 160.413 255.377 160.242C255.089 160.071 254.867 159.845 254.713 159.562C254.558 159.279 254.481 158.978 254.481 158.658C254.481 158.338 254.555 158.034 254.705 157.746C254.859 157.453 255.089 157.215 255.393 157.034C255.697 156.853 256.065 156.762 256.497 156.762C256.929 156.762 257.297 156.85 257.601 157.026C257.91 157.202 258.142 157.434 258.297 157.722C258.451 158.01 258.529 158.317 258.529 158.642C258.529 158.93 258.478 159.186 258.377 159.41C258.275 159.629 258.134 159.869 257.953 160.13L256.409 162.282C256.371 162.33 256.334 162.37 256.297 162.402C256.265 162.429 256.217 162.442 256.153 162.442H255.721ZM256.497 159.858C256.721 159.858 256.926 159.81 257.113 159.714C257.305 159.613 257.457 159.471 257.569 159.29C257.681 159.103 257.737 158.89 257.737 158.65C257.737 158.41 257.681 158.199 257.569 158.018C257.457 157.831 257.305 157.69 257.113 157.594C256.926 157.493 256.721 157.442 256.497 157.442C256.273 157.442 256.067 157.493 255.881 157.594C255.694 157.69 255.545 157.831 255.433 158.018C255.326 158.199 255.273 158.41 255.273 158.65C255.273 158.89 255.326 159.103 255.433 159.29C255.545 159.471 255.694 159.613 255.881 159.714C256.067 159.81 256.273 159.858 256.497 159.858Z" fill="#8898A0"/>
<path d="M99.6229 162.442C99.5696 162.442 99.5243 162.426 99.4869 162.394C99.4549 162.357 99.4389 162.311 99.4389 162.258V161.106H96.8469C96.7936 161.106 96.7483 161.09 96.7109 161.058C96.6789 161.021 96.6629 160.975 96.6629 160.922V160.602C96.6629 160.522 96.6923 160.442 96.7509 160.362L99.1509 156.978C99.1776 156.935 99.2176 156.903 99.2709 156.882C99.3243 156.855 99.3829 156.842 99.4469 156.842H100.023C100.076 156.842 100.119 156.861 100.151 156.898C100.188 156.93 100.207 156.973 100.207 157.026V160.41H100.927C100.98 160.41 101.026 160.429 101.063 160.466C101.1 160.498 101.119 160.541 101.119 160.594V160.922C101.119 160.975 101.1 161.021 101.063 161.058C101.031 161.09 100.988 161.106 100.935 161.106H100.207V162.258C100.207 162.311 100.188 162.357 100.151 162.394C100.119 162.426 100.076 162.442 100.023 162.442H99.6229ZM99.4469 160.426V157.682L97.5189 160.426H99.4469Z" fill="#8898A0"/>
<path d="M66.4065 162.522C65.9852 162.522 65.6199 162.455 65.3105 162.322C65.0065 162.183 64.7745 162.005 64.6145 161.786C64.4599 161.567 64.3772 161.338 64.3665 161.098C64.3665 161.05 64.3825 161.013 64.4145 160.986C64.4465 160.954 64.4865 160.938 64.5345 160.938H64.9265C65.0385 160.938 65.1132 160.997 65.1505 161.114C65.2199 161.381 65.3692 161.57 65.5985 161.682C65.8279 161.789 66.0972 161.842 66.4065 161.842C66.7852 161.842 67.0865 161.754 67.3105 161.578C67.5345 161.397 67.6465 161.138 67.6465 160.802C67.6465 160.157 67.2545 159.834 66.4705 159.834H65.7105C65.6572 159.834 65.6119 159.818 65.5745 159.786C65.5425 159.749 65.5265 159.703 65.5265 159.65V159.434C65.5265 159.359 65.5559 159.287 65.6145 159.218L67.1665 157.522H64.8065C64.7532 157.522 64.7079 157.506 64.6705 157.474C64.6385 157.437 64.6225 157.391 64.6225 157.338V157.034C64.6225 156.981 64.6385 156.935 64.6705 156.898C64.7079 156.861 64.7532 156.842 64.8065 156.842H67.9985C68.0572 156.842 68.1025 156.861 68.1345 156.898C68.1719 156.93 68.1905 156.975 68.1905 157.034V157.322C68.1905 157.386 68.1612 157.447 68.1025 157.506L66.5585 159.226L66.6865 159.234C67.2305 159.25 67.6599 159.391 67.9745 159.658C68.2892 159.925 68.4465 160.314 68.4465 160.826C68.4465 161.173 68.3585 161.474 68.1825 161.73C68.0065 161.986 67.7639 162.183 67.4545 162.322C67.1452 162.455 66.7959 162.522 66.4065 162.522Z" fill="#8898A0"/>
<path d="M33.9502 162.442C33.8968 162.442 33.8515 162.426 33.8142 162.394C33.7822 162.357 33.7662 162.311 33.7662 162.258V162.002C33.7662 161.879 33.8328 161.762 33.9662 161.65L35.6622 159.954C36.0728 159.613 36.3555 159.335 36.5102 159.122C36.6648 158.903 36.7422 158.674 36.7422 158.434C36.7422 158.125 36.6542 157.882 36.4782 157.706C36.3075 157.53 36.0568 157.442 35.7262 157.442C35.4168 157.442 35.1688 157.535 34.9822 157.722C34.7955 157.903 34.6808 158.146 34.6382 158.45C34.6275 158.514 34.6008 158.562 34.5582 158.594C34.5208 158.621 34.4782 158.634 34.4302 158.634H34.0142C33.9662 158.634 33.9262 158.621 33.8942 158.594C33.8622 158.562 33.8462 158.525 33.8462 158.482C33.8568 158.194 33.9342 157.919 34.0782 157.658C34.2222 157.391 34.4328 157.175 34.7102 157.01C34.9928 156.839 35.3315 156.754 35.7262 156.754C36.3288 156.754 36.7822 156.911 37.0862 157.226C37.3955 157.535 37.5502 157.93 37.5502 158.41C37.5502 158.746 37.4648 159.05 37.2942 159.322C37.1288 159.589 36.8702 159.877 36.5182 160.186L34.9822 161.746H37.4782C37.5368 161.746 37.5822 161.765 37.6142 161.802C37.6515 161.834 37.6702 161.877 37.6702 161.93V162.258C37.6702 162.311 37.6515 162.357 37.6142 162.394C37.5768 162.426 37.5315 162.442 37.4782 162.442H33.9502Z" fill="#8898A0"/>
<path d="M224.665 162.522C224.249 162.522 223.884 162.455 223.569 162.322C223.254 162.183 223.009 161.986 222.833 161.73C222.657 161.474 222.569 161.175 222.569 160.834C222.569 160.519 222.646 160.245 222.801 160.01C222.956 159.77 223.166 159.586 223.433 159.458C223.22 159.335 223.054 159.175 222.937 158.978C222.825 158.775 222.769 158.541 222.769 158.274C222.769 157.805 222.94 157.437 223.281 157.17C223.628 156.898 224.089 156.762 224.665 156.762C225.236 156.762 225.692 156.898 226.033 157.17C226.38 157.437 226.553 157.802 226.553 158.266C226.553 158.533 226.494 158.767 226.377 158.97C226.265 159.167 226.105 159.33 225.897 159.458C226.164 159.586 226.374 159.77 226.529 160.01C226.684 160.245 226.761 160.519 226.761 160.834C226.761 161.175 226.673 161.474 226.497 161.73C226.321 161.986 226.073 162.183 225.753 162.322C225.438 162.455 225.076 162.522 224.665 162.522ZM224.665 159.17C224.985 159.165 225.254 159.082 225.473 158.922C225.692 158.762 225.801 158.551 225.801 158.29C225.801 158.023 225.692 157.81 225.473 157.65C225.26 157.485 224.99 157.402 224.665 157.402C224.334 157.402 224.06 157.482 223.841 157.642C223.628 157.802 223.521 158.018 223.521 158.29C223.521 158.557 223.628 158.77 223.841 158.93C224.06 159.09 224.334 159.17 224.665 159.17ZM224.665 161.882C225.038 161.882 225.35 161.786 225.601 161.594C225.852 161.402 225.977 161.149 225.977 160.834C225.977 160.519 225.852 160.269 225.601 160.082C225.35 159.895 225.038 159.802 224.665 159.802C224.286 159.802 223.972 159.895 223.721 160.082C223.47 160.269 223.345 160.519 223.345 160.834C223.345 161.149 223.47 161.402 223.721 161.594C223.972 161.786 224.286 161.882 224.665 161.882Z" fill="#8898A0"/>
<path d="M193.988 162.442C193.94 162.442 193.9 162.426 193.868 162.394C193.841 162.357 193.828 162.314 193.828 162.266L193.844 162.194L195.836 157.538H193.212C193.158 157.538 193.113 157.522 193.076 157.49C193.044 157.453 193.028 157.407 193.028 157.354V157.034C193.028 156.975 193.044 156.93 193.076 156.898C193.113 156.861 193.158 156.842 193.212 156.842H196.492C196.55 156.842 196.596 156.861 196.628 156.898C196.665 156.93 196.684 156.975 196.684 157.034V157.33C196.684 157.426 196.662 157.53 196.62 157.642L194.652 162.242C194.625 162.301 194.593 162.349 194.556 162.386C194.524 162.423 194.478 162.442 194.42 162.442H193.988Z" fill="#8898A0"/>
<path d="M163.902 162.522C163.475 162.522 163.105 162.437 162.79 162.266C162.475 162.09 162.235 161.855 162.07 161.562C161.905 161.269 161.822 160.949 161.822 160.602C161.822 160.319 161.878 160.053 161.99 159.802C162.107 159.546 162.238 159.319 162.382 159.122L163.902 157.002C163.907 156.997 163.923 156.978 163.95 156.946C163.971 156.914 164.001 156.89 164.038 156.874C164.075 156.853 164.118 156.842 164.166 156.842H164.59C164.638 156.842 164.675 156.861 164.702 156.898C164.734 156.93 164.75 156.97 164.75 157.018C164.75 157.055 164.739 157.09 164.718 157.122L163.55 158.754C163.667 158.717 163.819 158.698 164.006 158.698C164.39 158.703 164.729 158.791 165.022 158.962C165.321 159.133 165.55 159.362 165.71 159.65C165.875 159.938 165.958 160.253 165.958 160.594C165.958 160.935 165.875 161.255 165.71 161.554C165.55 161.847 165.313 162.082 164.998 162.258C164.689 162.434 164.323 162.522 163.902 162.522ZM163.894 161.842C164.123 161.842 164.334 161.794 164.526 161.698C164.723 161.602 164.878 161.461 164.99 161.274C165.107 161.082 165.166 160.855 165.166 160.594C165.166 160.338 165.107 160.117 164.99 159.93C164.878 159.743 164.723 159.602 164.526 159.506C164.334 159.41 164.123 159.362 163.894 159.362C163.67 159.362 163.459 159.41 163.262 159.506C163.07 159.602 162.915 159.743 162.798 159.93C162.681 160.117 162.622 160.338 162.622 160.594C162.622 160.855 162.681 161.082 162.798 161.274C162.915 161.461 163.07 161.602 163.262 161.698C163.454 161.794 163.665 161.842 163.894 161.842Z" fill="#8898A0"/>
<path d="M130.744 162.522C130.339 162.522 129.99 162.45 129.696 162.306C129.403 162.162 129.176 161.973 129.016 161.738C128.862 161.503 128.779 161.253 128.768 160.986V160.97C128.768 160.927 128.784 160.893 128.816 160.866C128.848 160.839 128.886 160.826 128.928 160.826H129.36C129.472 160.826 129.544 160.885 129.576 161.002C129.651 161.285 129.795 161.495 130.008 161.634C130.222 161.773 130.467 161.842 130.744 161.842C131.102 161.842 131.398 161.735 131.632 161.522C131.872 161.303 131.992 161.002 131.992 160.618C131.992 160.271 131.872 159.991 131.632 159.778C131.398 159.565 131.102 159.458 130.744 159.458C130.552 159.458 130.398 159.485 130.28 159.538C130.163 159.586 130.046 159.655 129.928 159.746C129.864 159.794 129.808 159.831 129.76 159.858C129.718 159.879 129.67 159.89 129.616 159.89H129.2C129.152 159.89 129.11 159.874 129.072 159.842C129.035 159.805 129.019 159.762 129.024 159.714L129.28 157.042C129.286 156.978 129.304 156.93 129.336 156.898C129.374 156.861 129.422 156.842 129.48 156.842H132.272C132.326 156.842 132.368 156.861 132.4 156.898C132.438 156.93 132.456 156.973 132.456 157.026V157.338C132.456 157.391 132.438 157.437 132.4 157.474C132.368 157.506 132.326 157.522 132.272 157.522H129.968L129.816 159.098C130.104 158.917 130.451 158.826 130.856 158.826C131.208 158.826 131.531 158.898 131.824 159.042C132.123 159.186 132.358 159.394 132.528 159.666C132.704 159.938 132.792 160.258 132.792 160.626C132.792 161.021 132.704 161.362 132.528 161.65C132.358 161.933 132.118 162.149 131.808 162.298C131.499 162.447 131.144 162.522 130.744 162.522Z" fill="#8898A0"/>
<rect opacity="0.5" x="22.4369" y="31.9917" width="311.754" height="0.295222" fill="#DADEE0"/>
<rect opacity="0.5" x="22.4369" y="132.367" width="311.754" height="0.295222" fill="#DADEE0"/>
<rect opacity="0.5" x="35.4266" y="34.9441" width="0.295222" height="95.0614" fill="#DADEE0"/>
<rect opacity="0.5" x="99.1946" y="34.9441" width="0.295222" height="95.0614" fill="#DADEE0"/>
<rect opacity="0.5" x="67.3106" y="34.9441" width="0.295222" height="95.0614" fill="#DADEE0"/>
<rect opacity="0.5" x="131.078" y="34.9441" width="0.295222" height="95.0614" fill="#DADEE0"/>
<rect opacity="0.5" x="162.962" y="34.9441" width="0.295222" height="95.0614" fill="#DADEE0"/>
<rect opacity="0.5" x="194.846" y="34.9441" width="0.295222" height="95.0614" fill="#DADEE0"/>
<rect opacity="0.5" x="226.73" y="34.9441" width="0.295222" height="95.0614" fill="#DADEE0"/>
<rect opacity="0.5" x="258.614" y="34.9441" width="0.295222" height="95.0614" fill="#DADEE0"/>
<rect opacity="0.5" x="290.498" y="34.9441" width="0.295222" height="95.0614" fill="#DADEE0"/>
<rect opacity="0.5" x="322.382" y="34.9441" width="0.295222" height="95.0614" fill="#DADEE0"/>
<path d="M67.6058 87.4935C55.2065 87.4935 46.0546 98.1215 35.7219 98.1215V132.367H322.677V86.3126C309.983 86.3126 306.018 63.7475 290.794 63.8757C275.16 64.0074 273.671 88.0839 258.91 88.0839C245.42 88.0839 244.148 74.7989 227.026 74.7989C208.427 74.7989 213.445 56.2 195.142 56.2C181.372 56.2 177.023 70.9086 163.258 71.2563C149.86 71.5946 144.068 58.5617 131.374 58.5617C112.184 58.5617 119.565 96.3501 99.4898 96.3501C86.5669 96.3501 80.5287 87.4935 67.6058 87.4935Z" fill="url(#paint0_linear)"/>
<path d="M9.06735 34.5444C9.01401 34.5444 8.96868 34.5284 8.93135 34.4964C8.89935 34.4591 8.88335 34.4138 8.88335 34.3604V34.1044C8.88335 33.9818 8.95001 33.8644 9.08335 33.7524L10.7793 32.0564C11.19 31.7151 11.4727 31.4378 11.6273 31.2244C11.782 31.0058 11.8593 30.7764 11.8593 30.5364C11.8593 30.2271 11.7713 29.9844 11.5953 29.8084C11.4247 29.6324 11.174 29.5444 10.8433 29.5444C10.534 29.5444 10.286 29.6378 10.0993 29.8244C9.91268 30.0058 9.79801 30.2484 9.75535 30.5524C9.74468 30.6164 9.71801 30.6644 9.67535 30.6964C9.63801 30.7231 9.59535 30.7364 9.54735 30.7364H9.13135C9.08335 30.7364 9.04335 30.7231 9.01135 30.6964C8.97935 30.6644 8.96335 30.6271 8.96335 30.5844C8.97401 30.2964 9.05135 30.0218 9.19535 29.7604C9.33935 29.4938 9.55001 29.2778 9.82735 29.1124C10.11 28.9418 10.4487 28.8564 10.8433 28.8564C11.446 28.8564 11.8993 29.0138 12.2033 29.3284C12.5127 29.6378 12.6673 30.0324 12.6673 30.5124C12.6673 30.8484 12.582 31.1524 12.4113 31.4244C12.246 31.6911 11.9873 31.9791 11.6353 32.2884L10.0993 33.8484H12.5953C12.654 33.8484 12.6993 33.8671 12.7313 33.9044C12.7687 33.9364 12.7873 33.9791 12.7873 34.0324V34.3604C12.7873 34.4138 12.7687 34.4591 12.7313 34.4964C12.694 34.5284 12.6487 34.5444 12.5953 34.5444H9.06735ZM14.5787 34.5444C14.5307 34.5444 14.4907 34.5284 14.4587 34.4964C14.432 34.4591 14.4187 34.4164 14.4187 34.3684L14.4347 34.2964L16.4267 29.6404H13.8027C13.7493 29.6404 13.704 29.6244 13.6667 29.5924C13.6347 29.5551 13.6187 29.5098 13.6187 29.4564V29.1364C13.6187 29.0778 13.6347 29.0324 13.6667 29.0004C13.704 28.9631 13.7493 28.9444 13.8027 28.9444H17.0827C17.1413 28.9444 17.1867 28.9631 17.2187 29.0004C17.256 29.0324 17.2747 29.0778 17.2747 29.1364V29.4324C17.2747 29.5284 17.2533 29.6324 17.2107 29.7444L15.2427 34.3444C15.216 34.4031 15.184 34.4511 15.1467 34.4884C15.1147 34.5258 15.0693 34.5444 15.0107 34.5444H14.5787Z" fill="#8898A0"/>
<path d="M9.00319 134.92C8.94986 134.92 8.90453 134.904 8.86719 134.872C8.83519 134.835 8.81919 134.789 8.81919 134.736V134.48C8.81919 134.357 8.88586 134.24 9.01919 134.128L10.7152 132.432C11.1259 132.091 11.4085 131.813 11.5632 131.6C11.7179 131.381 11.7952 131.152 11.7952 130.912C11.7952 130.603 11.7072 130.36 11.5312 130.184C11.3605 130.008 11.1099 129.92 10.7792 129.92C10.4699 129.92 10.2219 130.013 10.0352 130.2C9.84853 130.381 9.73386 130.624 9.69119 130.928C9.68053 130.992 9.65386 131.04 9.61119 131.072C9.57386 131.099 9.53119 131.112 9.48319 131.112H9.06719C9.01919 131.112 8.97919 131.099 8.94719 131.072C8.91519 131.04 8.89919 131.003 8.89919 130.96C8.90986 130.672 8.98719 130.397 9.13119 130.136C9.27519 129.869 9.48586 129.653 9.76319 129.488C10.0459 129.317 10.3845 129.232 10.7792 129.232C11.3819 129.232 11.8352 129.389 12.1392 129.704C12.4485 130.013 12.6032 130.408 12.6032 130.888C12.6032 131.224 12.5179 131.528 12.3472 131.8C12.1819 132.067 11.9232 132.355 11.5712 132.664L10.0352 134.224H12.5312C12.5899 134.224 12.6352 134.243 12.6672 134.28C12.7045 134.312 12.7232 134.355 12.7232 134.408V134.736C12.7232 134.789 12.7045 134.835 12.6672 134.872C12.6299 134.904 12.5845 134.92 12.5312 134.92H9.00319ZM15.7865 135C15.3598 135 14.9892 134.915 14.6745 134.744C14.3598 134.568 14.1198 134.333 13.9545 134.04C13.7892 133.747 13.7065 133.427 13.7065 133.08C13.7065 132.797 13.7625 132.531 13.8745 132.28C13.9918 132.024 14.1225 131.797 14.2665 131.6L15.7865 129.48C15.7918 129.475 15.8078 129.456 15.8345 129.424C15.8558 129.392 15.8852 129.368 15.9225 129.352C15.9598 129.331 16.0025 129.32 16.0505 129.32H16.4745C16.5225 129.32 16.5598 129.339 16.5865 129.376C16.6185 129.408 16.6345 129.448 16.6345 129.496C16.6345 129.533 16.6238 129.568 16.6025 129.6L15.4345 131.232C15.5518 131.195 15.7038 131.176 15.8905 131.176C16.2745 131.181 16.6132 131.269 16.9065 131.44C17.2052 131.611 17.4345 131.84 17.5945 132.128C17.7598 132.416 17.8425 132.731 17.8425 133.072C17.8425 133.413 17.7598 133.733 17.5945 134.032C17.4345 134.325 17.1972 134.56 16.8825 134.736C16.5732 134.912 16.2078 135 15.7865 135ZM15.7785 134.32C16.0078 134.32 16.2185 134.272 16.4105 134.176C16.6078 134.08 16.7625 133.939 16.8745 133.752C16.9918 133.56 17.0505 133.333 17.0505 133.072C17.0505 132.816 16.9918 132.595 16.8745 132.408C16.7625 132.221 16.6078 132.08 16.4105 131.984C16.2185 131.888 16.0078 131.84 15.7785 131.84C15.5545 131.84 15.3438 131.888 15.1465 131.984C14.9545 132.08 14.7998 132.221 14.6825 132.408C14.5652 132.595 14.5065 132.816 14.5065 133.072C14.5065 133.333 14.5652 133.56 14.6825 133.752C14.7998 133.939 14.9545 134.08 15.1465 134.176C15.3385 134.272 15.5492 134.32 15.7785 134.32Z" fill="#8898A0"/>
</g>
<rect x="407.283" y="16.7561" width="62.9285" height="32.2966" rx="4" fill="#6B7EAC"/>
<rect x="391.301" y="24.7471" width="72.2513" height="36.958" rx="4" fill="#AFBCDC"/>
<rect x="363" y="31.406" width="94.8922" height="48.2785" rx="4" fill="white"/>
<circle cx="380.647" cy="46.389" r="6.99206" fill="#91E0E8"/>
<rect x="390.968" y="39.397" width="54.2717" height="2.66364" rx="1.33182" fill="#91E0E8"/>
<rect x="390.968" y="44.3914" width="44.283" height="2.66364" rx="1.33182" fill="#DDE3E9"/>
<rect x="390.968" y="49.3857" width="31.9637" height="2.66364" rx="1.33182" fill="#DDE3E9"/>
<path d="M410.378 179.859C406.098 179.413 403.637 178.54 401.018 177.191C400.755 177.055 400.446 177.039 400.171 177.15L395.539 179.036L395.035 180.38C394.576 181.605 394.552 182.952 394.967 184.193C395.341 185.311 396.505 185.96 397.653 185.69L412.177 182.273C412.438 182.212 412.598 181.948 412.532 181.688C412.277 180.686 411.407 179.967 410.378 179.859Z" fill="#191949"/>
<path d="M342.049 98.7795C339.269 102.794 338.628 104.552 337.345 107.759H340.552C340.124 106.904 340.124 101.559 342.049 98.7795Z" fill="#CB4436"/>
<path d="M354.877 63.6493C355.205 63.1584 355.41 61.9149 355.511 60.3102C355.978 52.8401 351.554 42.5891 344.701 45.5976C343.819 45.9849 342.932 46.5742 342.05 47.401C340.036 49.2889 340.245 52.6339 341.194 55.7786C342.338 59.571 342.887 63.6777 341.407 67.352L346.752 67.5658L347.737 64.5599C347.904 64.0509 348.442 63.7659 348.96 63.9013C351.176 64.4799 353.982 64.9927 354.877 63.6493Z" fill="#CCA994"/>
<path d="M354.236 44.8351C349.728 41.0775 343.231 42.9556 341.622 43.7662L339.805 44.8351C338.047 42.4315 334.963 39.5389 331.48 38.7684C323.414 36.9846 327.923 49.5476 325.179 57.3393C324.871 58.2137 325.414 58.8442 326.241 58.4252C328.151 57.458 330.371 55.443 331.446 52.7936C332.516 50.1571 334.591 47.255 337.437 47.255L337.19 47.8605C336.737 48.9687 336.505 50.1541 336.505 51.351C336.505 52.2903 336.648 53.2242 336.93 54.1204L337.014 54.3878C337.517 55.9901 338.281 57.4987 339.274 58.853L339.735 59.4816C339.995 59.8361 340.287 60.1655 340.609 60.4653L341.82 61.5945C342.067 61.8245 342.451 61.8178 342.69 61.5793L343.53 60.0153C343.662 59.769 343.955 59.6565 344.218 59.7505L344.622 59.8948C345.106 60.0678 345.482 59.4552 345.108 59.1021L344.379 58.4141C343.48 57.5647 343.155 56.2708 343.546 55.0973L343.632 54.8736C343.941 54.0643 344.916 53.7438 345.645 54.2119C345.746 54.2771 345.839 54.3555 345.92 54.445L346.796 55.414C347.279 55.948 348.165 55.5766 348.122 54.8579C347.973 52.3116 350.318 50.3396 352.8 50.9238L354.47 51.3166C354.85 51.406 355.31 51.4035 355.519 51.0738C356.182 50.027 357.099 47.2221 354.236 44.8351Z" fill="#191847"/>
<path d="M383.911 82.115C380.643 84.1284 375.287 87.6771 372.228 88.1579C371.485 88.2746 370.585 88.8974 370.561 89.6492L370.51 91.2835C370.485 92.0854 371.363 92.5823 372.032 92.1383C372.617 91.7495 373.162 91.3841 373.67 91.0623C375.67 89.7937 378.074 90.1551 380.435 90.348C380.703 90.3699 380.972 90.389 381.236 90.4052C382.007 90.4525 382.146 89.6442 381.421 89.3767C380.954 89.2044 380.789 88.6279 381.094 88.2346L384.397 83.9783C385.848 82.1072 385.927 80.8727 383.911 82.115Z" fill="#CCA994"/>
<path d="M329.204 126.04C330.537 126.04 327.418 124.68 330.015 116.821C330.053 116.703 330.059 116.573 330.027 116.454C329.828 115.71 326.015 115.431 325.588 116.073C323.286 119.539 319.901 123.292 317.232 125.508C316.651 125.99 316.884 126.969 317.638 126.993C322.393 127.145 325.895 124.73 327.168 123.147C327.75 124.955 328.331 126.04 329.204 126.04Z" fill="#CCA994"/>
<path d="M360.781 190.329C358.233 186.86 357.223 184.453 356.461 181.607C356.385 181.321 356.189 181.081 355.922 180.953L351.41 178.793L350.077 179.323C348.861 179.807 347.849 180.695 347.21 181.837C346.634 182.866 346.936 184.164 347.908 184.832L360.204 193.283C360.425 193.435 360.728 193.376 360.876 193.153C361.446 192.29 361.393 191.162 360.781 190.329Z" fill="#191949"/>
<path d="M351.663 178.054L354.021 171.767L362.359 174.333L356.802 181.034C355.826 182.211 354.123 182.47 352.842 181.637C351.657 180.867 351.167 179.377 351.663 178.054Z" fill="#CBA994"/>
<path d="M395.163 178.353L392.095 172.38L399.601 167.934L400.824 176.554C401.038 178.067 400.085 179.502 398.607 179.89C397.24 180.249 395.808 179.61 395.163 178.353Z" fill="#CBA994"/>
<path d="M406.401 170.912L389.297 130.077L378.394 140.126L389.297 178.181L406.401 170.912Z" fill="#38949E"/>
<path d="M373.01 134.701L352.163 131.44C340.374 129.597 332.084 118.859 333.283 106.988H354.021L386.177 121.857C389.122 123.219 391.007 126.168 391.007 129.413C391.007 130.556 390.772 131.687 390.316 132.735L368.773 182.243L349.318 171.981L374.314 137.859C375.2 136.65 374.49 134.932 373.01 134.701Z" fill="#89C5CC"/>
<path d="M374.545 87.4732C359.129 90.7287 350.39 75.4868 348.249 67.7795L345.042 86.5935C349.192 99.0237 356.8 109.256 374.545 106.895V87.4732Z" fill="#CB4436"/>
<path d="M320.242 116.738C324.32 93.4078 335.676 73.5863 341.269 66.7104H348.676C346.765 76.4315 352.967 96.1898 355.304 107.729H337.345L337.324 107.807C336.513 110.8 336.86 113.989 338.295 116.738H320.242Z" fill="#FA503F"/>
<path d="M420.981 193.531C426.143 192.204 429.619 190.928 432.334 189.172C432.5 189.064 432.693 189.005 432.892 189.005H439.577L439.762 193.699C439.807 194.833 438.899 195.778 437.764 195.778H419.908C419.697 195.778 419.526 195.606 419.526 195.395C419.526 194.515 420.129 193.75 420.981 193.531Z" fill="#191949"/>
<path d="M495.008 193.719C497.376 189.685 498.217 187.059 498.805 184.221C498.845 184.028 498.94 183.85 499.079 183.711L503.703 179.087L507.027 181.931C507.922 182.696 507.965 184.065 507.12 184.885L495.762 195.916C495.621 196.053 495.395 196.05 495.258 195.909C494.688 195.322 494.594 194.424 495.008 193.719Z" fill="#191949"/>
<path d="M432.104 189.005L448.038 102.743C448.126 102.269 448.539 101.925 449.022 101.925H467.958C468.643 101.925 469.125 102.598 468.905 103.247L439.723 189.005H432.104Z" fill="#38949E"/>
<path d="M464.938 157.557L451.271 101.226C451.118 100.596 451.595 99.99 452.243 99.99H474.663C475.215 99.99 475.663 100.438 475.663 100.99V148.912C475.663 149.172 475.764 149.421 475.944 149.608L503.492 178.087C503.876 178.484 503.865 179.117 503.469 179.501L499.277 183.562C498.919 183.909 498.359 183.939 497.966 183.631L465.294 158.11C465.117 157.971 464.991 157.776 464.938 157.557Z" fill="#88C5CC"/>
<path d="M453.632 54.4372C453.164 53.7361 452.917 51.6787 452.85 49.1549C452.654 41.6728 456.428 31.8517 463.72 33.5376C465.183 33.8758 466.671 34.6715 468.145 36.0537C470.501 38.2627 470.168 42.235 469.001 45.8963C467.645 50.1493 465.723 54.2449 464.769 58.6057L464.517 59.7588H459.195L460.597 56.3331C460.912 55.5623 460.202 54.766 459.391 54.9534C457.082 55.4867 454.522 55.7728 453.632 54.4372Z" fill="#D4A181"/>
<path d="M454.358 33.1513C459.458 28.8999 466.809 31.0247 468.629 31.9418L470.319 32.9359C471.89 33.8601 473.114 35.275 473.803 36.9628C474.209 37.96 474.419 39.0267 474.419 40.1037L474.419 40.9974C474.419 41.746 474.304 42.4902 474.08 43.2044L473.766 44.2033C473.248 45.8545 472.461 47.4092 471.437 48.8049C470.697 49.815 469.838 50.7332 468.88 51.5403L467.604 52.6154C467.128 53.0166 466.57 53.3083 465.968 53.4699L466.152 50.7113C466.18 50.3006 465.777 49.9963 465.389 50.1348L465.235 50.1899C464.687 50.3856 464.262 49.6925 464.685 49.2931L465.509 48.5146C466.527 47.5536 466.895 46.0897 466.452 44.7619L466.355 44.5089C466.006 43.5932 464.903 43.2306 464.078 43.7602C463.963 43.834 463.858 43.9227 463.767 44.024L462.775 45.1203C462.229 45.7244 461.227 45.3043 461.275 44.4911C461.444 41.6102 458.791 39.3791 455.982 40.04L454.093 40.4844C453.663 40.5856 453.143 40.5828 452.906 40.2097C452.156 39.0254 451.118 35.8519 454.358 33.1513Z" fill="#191847"/>
<path d="M420.925 68.9376C423.47 72.4763 427.796 79.1065 430.896 80.8689C431.55 81.2407 432.136 82.1402 431.865 82.8419L431.031 85.0015C430.741 85.7498 429.738 85.866 429.295 85.1973C428.76 84.3904 428.271 83.6409 427.811 82.9843C426.349 80.8987 423.802 80.2718 421.38 79.4857C421.026 79.371 420.673 79.2513 420.33 79.1304C419.505 78.8399 419.716 77.9363 420.59 77.977C421.152 78.0032 421.578 77.4751 421.433 76.9308L419.747 70.5886C419.138 68.2998 419.543 67.0148 420.925 68.9376Z" fill="#D4A181"/>
<path d="M429.349 78.3567L438.833 81.0213C441.482 81.7656 444.291 80.5469 445.556 78.1032L449.899 69.7207C452.202 65.2738 455.386 61.3416 459.255 58.1628C459.676 57.8174 460.313 58.0295 460.442 58.558L461.078 61.1526C461.185 61.5889 461.142 62.0485 460.956 62.4573L447.479 92.0533C446.24 94.7752 443.344 96.4952 440.6 95.3078C434.406 92.629 428.985 86.5686 426.086 82.512C425.553 81.7657 425.644 80.7557 426.267 80.0827L427.34 78.9234C427.85 78.3725 428.626 78.1536 429.349 78.3567Z" fill="#191847"/>
<path d="M458.953 57.8969C460.681 58.1658 465.026 57.4482 465.836 57.8969L460.88 104.466L446.375 104.101C446.018 103.65 445.8 102.892 445.692 101.913C444.014 86.6673 455.135 72.7519 458.953 57.8969Z" fill="#DDE3E9"/>
<path d="M491.367 118.539C490.258 118.539 492.852 117.403 490.692 110.839C490.66 110.742 490.655 110.634 490.681 110.534C490.847 109.915 494.022 109.684 494.376 110.218C496.293 113.115 499.112 116.251 501.333 118.1C501.814 118.501 501.621 119.315 500.995 119.335C497.035 119.464 494.119 117.446 493.06 116.123C492.576 117.633 492.092 118.539 491.367 118.539Z" fill="#D4A181"/>
<path d="M452.78 106.033C449.796 98.0376 456.964 70.5438 461.388 57.4625C461.525 57.0581 461.901 56.7986 462.328 56.7986L465.577 56.7986C465.935 56.7986 466.289 56.8947 466.594 57.0805C486.475 69.162 493.713 95.2921 495.075 108.469C495.176 109.452 494.512 110.33 493.549 110.549L490.411 111.259C489.795 111.399 489.15 111.244 488.75 110.755C486.013 107.413 480.311 96.5104 477.113 90.0912C478.438 93.5957 478.81 100.602 478.813 105.062C478.814 106.144 477.927 107.004 476.845 107.004L454.347 107.004C453.666 107.004 453.018 106.671 452.78 106.033Z" fill="#2F3676"/>
<path d="M495.008 193.719C497.376 189.684 498.217 187.059 498.805 184.221C498.845 184.028 498.94 183.85 499.079 183.711L503.703 179.087L507.027 181.93C507.922 182.696 507.965 184.065 507.12 184.885L495.762 195.916C495.621 196.053 495.395 196.05 495.258 195.908C494.688 195.322 494.594 194.424 495.008 193.719Z" fill="#191949"/>
<path d="M464.938 157.557L451.271 101.226C451.118 100.596 451.595 99.9897 452.243 99.9897H474.663C475.215 99.9897 475.663 100.437 475.663 100.99V148.912C475.663 149.172 475.764 149.421 475.944 149.607L504.187 178.805L498.652 184.167L465.294 158.109C465.117 157.971 464.991 157.776 464.938 157.557Z" fill="#4FBCC9"/>
<path d="M453.632 54.437C453.164 53.7359 452.917 51.6784 452.85 49.1546C452.654 41.6725 456.428 31.8515 463.72 33.5373C465.183 33.8755 466.671 34.6713 468.145 36.0534C470.501 38.2624 470.168 42.2347 469.001 45.896C467.645 50.149 465.723 54.2447 464.769 58.6055L464.517 59.7585H459.195L460.597 56.3329C460.912 55.5621 460.202 54.7658 459.391 54.9532C457.082 55.4865 454.522 55.7726 453.632 54.437Z" fill="#CCA994"/>
<path d="M454.358 33.151C459.458 28.8996 466.809 31.0245 468.629 31.9416L470.319 32.9357C471.89 33.8599 473.114 35.2747 473.803 36.9625C474.209 37.9597 474.419 39.0265 474.419 40.1034L474.419 40.9972C474.419 41.7458 474.304 42.49 474.08 43.2041L473.766 44.203C473.248 45.8543 472.461 47.409 471.437 48.8047C470.697 49.8147 469.838 50.733 468.88 51.54L467.604 52.6152C467.128 53.0164 466.57 53.3081 465.968 53.4697L466.152 50.7111C466.18 50.3003 465.777 49.9961 465.389 50.1345L465.235 50.1897C464.687 50.3853 464.262 49.6923 464.685 49.2928L465.509 48.5144C466.527 47.5534 466.895 46.0895 466.452 44.7617L466.355 44.5086C466.006 43.593 464.903 43.2304 464.078 43.76C463.963 43.8337 463.858 43.9224 463.767 44.0237L462.775 45.12C462.229 45.7242 461.227 45.304 461.275 44.4909C461.444 41.61 458.791 39.3788 455.982 40.0398L454.093 40.4842C453.663 40.5853 453.143 40.5826 452.906 40.2095C452.156 39.0252 451.118 35.8517 454.358 33.151Z" fill="#191847"/>
<path d="M420.925 68.9374C423.47 72.4761 427.796 79.1063 430.896 80.8687C431.55 81.2404 432.136 82.14 431.865 82.8416L431.031 85.0013C430.741 85.7496 429.738 85.8657 429.295 85.197C428.76 84.3901 428.271 83.6407 427.811 82.984C426.349 80.8985 423.802 80.2716 421.38 79.4855C421.026 79.3707 420.673 79.2511 420.33 79.1301C419.505 78.8396 419.716 77.9361 420.59 77.9767C421.152 78.0029 421.578 77.4748 421.433 76.9305L419.747 70.5884C419.138 68.2995 419.543 67.0146 420.925 68.9374Z" fill="#CCA994"/>
<path d="M428.171 78.0256L438.833 81.021C441.482 81.7654 444.291 80.5467 445.556 78.103L449.899 69.7204C452.202 65.2736 455.386 61.3413 459.255 58.1625C459.676 57.8171 460.313 58.0292 460.442 58.5578L461.078 61.1523C461.185 61.5887 461.142 62.0483 460.956 62.4571L447.479 92.053C446.24 94.7749 443.344 96.4949 440.6 95.3076C433.71 92.3277 427.775 85.1633 425.207 81.2275L428.171 78.0256Z" fill="#DC8419"/>
<path d="M458.953 57.8967C460.681 58.1656 465.026 57.4479 465.836 57.8967L460.88 104.466L446.375 104.101C446.018 103.649 445.8 102.891 445.692 101.913C444.014 86.6671 455.135 72.7517 458.953 57.8967Z" fill="#DDE3E9"/>
<path d="M491.367 118.539C490.258 118.539 492.852 117.403 490.692 110.839C490.66 110.741 490.655 110.633 490.681 110.534C490.847 109.915 494.022 109.683 494.376 110.218C496.293 113.114 499.112 116.25 501.333 118.1C501.814 118.501 501.621 119.314 500.995 119.335C497.035 119.464 494.119 117.446 493.06 116.123C492.576 117.633 492.092 118.539 491.367 118.539Z" fill="#CCA994"/>
<path d="M453.254 107.004C449.067 100.476 457.016 70.1642 461.614 56.7984L466.124 56.7984C487.266 69.2851 494.333 97.5817 495.223 110.169L489.432 111.481C487.094 109.478 480.608 97.1068 477.113 90.0909C478.653 94.1636 478.905 102.965 478.788 107.004L453.254 107.004Z" fill="#FF9B21"/>
<rect x="306" y="128.022" width="53.7108" height="53.7108" rx="5" stroke="url(#paint1_linear)" stroke-width="10" stroke-linecap="round" stroke-linejoin="round"/>
<path d="M354.877 63.6493C355.205 63.1584 355.41 61.9149 355.511 60.3102C355.978 52.8401 351.554 42.5891 344.701 45.5976C343.819 45.9849 342.932 46.5742 342.05 47.401C340.036 49.2889 340.245 52.6339 341.194 55.7786C342.338 59.571 342.887 63.6777 341.407 67.352L346.752 67.5658L347.737 64.5599C347.904 64.0509 348.442 63.7659 348.96 63.9013C351.176 64.4799 353.982 64.9927 354.877 63.6493Z" fill="#CCA994"/>
<path d="M354.236 44.8351C349.728 41.0775 343.231 42.9556 341.622 43.7662L339.805 44.8351C338.047 42.4315 334.963 39.5389 331.48 38.7684C323.414 36.9846 327.923 49.5476 325.179 57.3393C324.871 58.2137 325.414 58.8442 326.241 58.4252C328.151 57.458 330.371 55.443 331.446 52.7936C332.516 50.1571 334.591 47.255 337.437 47.255L337.19 47.8605C336.737 48.9687 336.505 50.1541 336.505 51.351C336.505 52.2903 336.648 53.2242 336.93 54.1204L337.014 54.3878C337.517 55.9901 338.281 57.4987 339.274 58.853L339.735 59.4816C339.995 59.8361 340.287 60.1655 340.609 60.4653L341.82 61.5945C342.067 61.8245 342.451 61.8178 342.69 61.5793L343.53 60.0153C343.662 59.769 343.955 59.6565 344.218 59.7505L344.622 59.8948C345.106 60.0678 345.482 59.4552 345.108 59.1021L344.379 58.4141C343.48 57.5647 343.155 56.2708 343.546 55.0973L343.632 54.8736C343.941 54.0643 344.916 53.7438 345.645 54.2119C345.746 54.2771 345.839 54.3555 345.92 54.445L346.796 55.414C347.279 55.948 348.165 55.5766 348.122 54.8579C347.973 52.3116 350.318 50.3396 352.8 50.9238L354.47 51.3166C354.85 51.406 355.31 51.4035 355.519 51.0738C356.182 50.027 357.099 47.2221 354.236 44.8351Z" fill="#191847"/>
<path d="M383.911 82.115C380.643 84.1284 375.287 87.6771 372.228 88.1579C371.485 88.2746 370.585 88.8974 370.561 89.6492L370.51 91.2835C370.485 92.0854 371.363 92.5823 372.032 92.1383C372.617 91.7495 373.162 91.3841 373.67 91.0623C375.67 89.7937 378.074 90.1551 380.435 90.348C380.703 90.3699 380.972 90.389 381.236 90.4052C382.007 90.4525 382.146 89.6442 381.421 89.3767C380.954 89.2044 380.789 88.6279 381.094 88.2346L384.397 83.9783C385.848 82.1072 385.927 80.8727 383.911 82.115Z" fill="#CCA994"/>
<path d="M329.204 126.04C330.537 126.04 327.418 124.68 330.015 116.821C330.053 116.703 330.059 116.573 330.027 116.454C329.828 115.71 326.015 115.431 325.588 116.073C323.286 119.539 319.901 123.292 317.232 125.508C316.651 125.99 316.884 126.969 317.638 126.993C322.393 127.145 325.895 124.73 327.168 123.147C327.75 124.955 328.331 126.04 329.204 126.04Z" fill="#CCA994"/>
<path d="M360.781 190.329C358.229 186.855 357.22 184.445 356.458 181.593C356.383 181.315 356.196 181.08 355.939 180.949L351.797 178.846L350.188 179.394C348.907 179.83 347.832 180.725 347.17 181.907C346.617 182.896 346.908 184.144 347.842 184.787L360.204 193.283C360.425 193.435 360.728 193.376 360.876 193.153C361.446 192.29 361.393 191.162 360.781 190.329Z" fill="#191949"/>
<path d="M352.007 178.154L355.09 172.556L361.472 173.524L356.548 180.912C355.74 182.123 354.108 182.46 352.886 181.666C351.718 180.907 351.334 179.375 352.007 178.154Z" fill="#CBA994"/>
<path d="M373.01 134.701L352.163 131.44C340.374 129.597 332.084 118.859 333.283 106.988H354.021L386.177 121.857C389.122 123.219 391.007 126.168 391.007 129.413C391.007 130.556 390.772 131.687 390.316 132.735L368.773 182.243L349.318 171.981L374.314 137.859C375.2 136.65 374.49 134.932 373.01 134.701Z" fill="#4FBCC9"/>
<path d="M374.545 87.4732C359.129 90.7287 350.39 75.4868 348.249 67.7795L345.042 86.5935C349.192 99.0237 356.8 109.256 374.545 106.895V87.4732Z" fill="#CB4436"/>
<path d="M320.242 116.738C324.32 93.4078 335.676 73.5863 341.269 66.7104H348.676C346.765 76.4315 352.967 96.1898 355.304 107.729H337.345L337.324 107.807C336.513 110.8 336.86 113.989 338.295 116.738H320.242Z" fill="#FA503F"/>
<path d="M342.049 98.7795C339.269 102.794 338.628 104.552 337.345 107.759H340.552C340.124 106.904 340.124 101.559 342.049 98.7795Z" fill="#CB4436"/>
<defs>
<linearGradient id="paint0_linear" x1="179.2" y1="56.2" x2="179.2" y2="132.367" gradientUnits="userSpaceOnUse">
<stop stop-color="white" stop-opacity="0.7"/>
<stop offset="1" stop-color="white" stop-opacity="0"/>
</linearGradient>
<linearGradient id="paint1_linear" x1="332.855" y1="123.022" x2="332.971" y2="186.98" gradientUnits="userSpaceOnUse">
<stop offset="0.318974" stop-color="white"/>
<stop offset="1" stop-color="white" stop-opacity="0"/>
</linearGradient>
</defs>
</svg>
