<svg width="14" height="15" viewBox="0 0 14 15" fill="none" xmlns="http://www.w3.org/2000/svg">
<circle cx="7" cy="7.06934" r="7" fill="#FA8276"/>
<path d="M6.2835 7.60534C6.2065 7.60534 6.14 7.57734 6.084 7.52134C6.028 7.46534 6 7.39884 6 7.32184V3.35284C6 3.27584 6.028 3.20934 6.084 3.15334C6.14 3.09734 6.2065 3.06934 6.2835 3.06934H8.1105C8.1875 3.06934 8.254 3.09734 8.31 3.15334C8.366 3.20934 8.394 3.27584 8.394 3.35284V7.32184C8.394 7.39884 8.366 7.46534 8.31 7.52134C8.254 7.57734 8.1875 7.60534 8.1105 7.60534H6.2835ZM6.2835 10.7133C6.2065 10.7133 6.14 10.6853 6.084 10.6293C6.028 10.5733 6 10.5068 6 10.4298V8.60284C6 8.52584 6.028 8.45934 6.084 8.40334C6.14 8.34734 6.2065 8.31934 6.2835 8.31934H8.1105C8.1875 8.31934 8.254 8.34734 8.31 8.40334C8.366 8.45934 8.394 8.52584 8.394 8.60284V10.4298C8.394 10.5068 8.366 10.5733 8.31 10.6293C8.254 10.6853 8.1875 10.7133 8.1105 10.7133H6.2835Z" fill="white"/>
</svg>
