<svg width="166" height="177" viewBox="0 0 166 177" fill="none" xmlns="http://www.w3.org/2000/svg">
<mask id="mask0" mask-type="alpha" maskUnits="userSpaceOnUse" x="1" y="0" width="160" height="160">
<circle cx="80.9408" cy="80.0102" r="79.9408" fill="url(#paint0_linear)"/>
</mask>
<g mask="url(#mask0)">
<circle cx="80.9408" cy="80.0102" r="79.9408" fill="url(#paint1_linear)"/>
<rect x="61.1388" y="9.71924" width="72.291" height="37.1017" rx="4" fill="#FF8181"/>
<rect x="42.7792" y="18.8989" width="83.0008" height="42.4566" rx="4" fill="#FFADAD"/>
<rect x="10.2673" y="26.5488" width="109.01" height="55.4613" rx="4" fill="white"/>
<circle cx="30.5394" cy="43.7611" r="8.03233" fill="#DDE3E9"/>
<rect x="42.3967" y="35.7288" width="62.3462" height="3.05994" rx="1.52997" fill="#89C5CC"/>
<rect x="42.3967" y="41.4661" width="50.8714" height="3.05994" rx="1.52997" fill="#DDE3E9"/>
<rect x="42.3967" y="47.2034" width="36.7192" height="3.05994" rx="1.52997" fill="#DDE3E9"/>
<rect x="41" y="56.0693" width="27" height="2" rx="1" fill="#89C5CC"/>
<rect x="41" y="60.0693" width="22" height="2" rx="1" fill="#DDE3E9"/>
<rect x="41" y="64.0693" width="16" height="2" rx="1" fill="#DDE3E9"/>
<rect x="77" y="56.0693" width="27" height="2" rx="1" fill="#89C5CC"/>
<rect x="77" y="60.0693" width="22" height="2" rx="1" fill="#DDE3E9"/>
<rect x="77" y="64.0693" width="16" height="2" rx="1" fill="#DDE3E9"/>
<path d="M87.4784 163.813C84.1415 163.464 82.2032 162.789 80.1651 161.747C79.9015 161.613 79.5922 161.596 79.3179 161.708L75.7457 163.162L75.3475 164.224C74.9843 165.193 74.9652 166.257 75.2935 167.238C75.5893 168.123 76.51 168.636 77.4175 168.422L88.9006 165.721C89.107 165.672 89.2335 165.464 89.1812 165.258C88.9799 164.466 88.2914 163.897 87.4784 163.813Z" fill="#191949"/>
<path d="M43.5974 71.9327C43.6456 71.8603 43.6905 71.7672 43.7322 71.6554C46.3456 64.6418 39.1062 53.9508 33.5663 58.9837C33.5293 59.0173 33.4923 59.0515 33.4553 59.0861C31.8632 60.5788 32.0285 63.2235 32.7786 65.7098C33.6833 68.7082 34.1176 71.9551 32.9473 74.8601L37.1732 75.0292L37.8898 72.8433C38.0566 72.3342 38.5941 72.0503 39.1134 72.1819C40.8314 72.6171 42.9152 72.9559 43.5974 71.9327Z" fill="#CCA994"/>
<path d="M43.0903 57.0577C39.5264 54.0867 34.3894 55.5716 33.1173 56.2125L31.6805 57.0577C30.2976 55.1669 27.8774 52.8935 25.1405 52.2705C18.7453 50.8149 22.2953 60.7576 20.1167 66.9439C19.8722 67.6382 20.3088 68.1319 20.965 67.7984C22.4727 67.032 24.223 65.4408 25.0718 63.3499C25.918 61.2654 27.5582 58.9709 29.808 58.9709L29.6127 59.4496C29.2553 60.3258 29.0715 61.2631 29.0715 62.2093C29.0715 62.952 29.1848 63.6904 29.4073 64.3989L29.4737 64.6103C29.8716 65.8772 30.4753 67.0699 31.2606 68.1407L31.625 68.6377C31.8306 68.918 32.062 69.1784 32.3162 69.4154L33.2738 70.3082C33.4689 70.4901 33.7729 70.4848 33.9615 70.2962L34.6257 69.0596C34.7303 68.8649 34.9615 68.7759 35.1696 68.8503L35.4891 68.9644C35.872 69.1011 36.1689 68.6168 35.8733 68.3377L35.2973 67.7937C34.5863 67.1221 34.3293 66.0991 34.6386 65.1713L34.7061 64.9944C34.9505 64.3546 35.7214 64.1012 36.2978 64.4713C36.3781 64.5228 36.4512 64.5848 36.5152 64.6556L37.208 65.4217C37.5898 65.8439 38.2901 65.5503 38.2567 64.982C38.1383 62.9688 39.9922 61.4097 41.9553 61.8716L43.2751 62.1821C43.5755 62.2528 43.9392 62.2509 44.1044 61.9902C44.6288 61.1625 45.3541 58.9449 43.0903 57.0577Z" fill="#191847"/>
<path d="M41.0562 162.385L42.9203 157.415L49.5126 159.443L45.1187 164.742C44.3473 165.672 43.0013 165.877 41.9881 165.218C41.0515 164.609 40.664 163.431 41.0562 162.385Z" fill="#CBA994"/>
<path d="M75.4485 162.621L73.0231 157.899L78.9576 154.384L79.9242 161.199C80.0939 162.396 79.3404 163.53 78.1715 163.837C77.0912 164.12 75.9588 163.615 75.4485 162.621Z" fill="#CBA994"/>
<path d="M84.3335 156.739L70.8108 124.453L62.1901 132.398L70.8108 162.486L84.3335 156.739Z" fill="#69A1AC"/>
<path d="M57.254 128.002L41.4512 125.531C32.1308 124.073 25.576 115.583 26.5241 106.198H42.9203L68.3437 117.954C70.6724 119.031 72.1632 121.363 72.1632 123.928C72.1632 124.832 71.9771 125.726 71.6165 126.555L54.5837 165.697L39.2016 157.584L58.5584 131.16C59.444 129.951 58.7346 128.234 57.254 128.002Z" fill="#89C5CC"/>
<path d="M104.874 169.862L117.222 103.013C117.31 102.539 117.723 102.195 118.205 102.195H132.711C133.396 102.195 133.878 102.868 133.657 103.517L110.91 170.366C110.772 170.771 110.392 171.043 109.964 171.043H105.857C105.232 171.043 104.76 170.476 104.874 169.862Z" fill="#68A1AC"/>
<path d="M130.598 146.109L119.872 101.901C119.72 101.271 120.196 100.665 120.844 100.665H138.095C138.647 100.665 139.095 101.113 139.095 101.665V139.26C139.095 139.519 139.196 139.769 139.376 139.955L160.952 162.261C161.336 162.658 161.325 163.291 160.929 163.675L157.896 166.613C157.538 166.96 156.978 166.99 156.585 166.682L130.954 146.661C130.777 146.522 130.651 146.328 130.598 146.109Z" fill="#88C5CC"/>
<path d="M121.676 64.6495C121.472 64.343 121.321 63.7086 121.217 62.8653C120.308 55.4361 125.562 44.9987 131.839 49.0768C132.276 49.3613 132.714 49.7056 133.151 50.1148C134.823 51.6823 134.782 54.3728 134.089 57.0006C133.031 61.0106 131.169 64.8056 130.282 68.8569H126.075L127.021 66.5454C127.336 65.7746 126.626 64.9797 125.81 65.1499C124.104 65.5063 122.327 65.6252 121.676 64.6495Z" fill="#D4A181"/>
<path d="M122.25 47.8199C126.282 44.4585 132.094 46.1385 133.534 46.8636L134.87 47.6496C136.112 48.3803 137.08 49.4989 137.624 50.8334C137.946 51.6218 138.111 52.4652 138.111 53.3167L138.111 54.0233C138.111 54.6152 138.021 55.2036 137.843 55.7682L137.595 56.558C137.185 57.8635 136.563 59.0927 135.754 60.1962C135.168 60.9948 134.49 61.7208 133.732 62.3589L132.723 63.2089C132.347 63.5261 131.905 63.7567 131.43 63.8845L131.575 61.7035C131.597 61.3787 131.279 61.1381 130.972 61.2476L130.85 61.2912C130.417 61.4459 130.081 60.898 130.415 60.5821L131.067 59.9667C131.872 59.2069 132.162 58.0494 131.812 56.9997L131.736 56.7996C131.459 56.0756 130.587 55.7889 129.935 56.2077C129.844 56.266 129.762 56.3361 129.689 56.4162L128.905 57.283C128.473 57.7606 127.681 57.4284 127.719 56.7855C127.853 54.5078 125.755 52.7438 123.534 53.2664L122.041 53.6177C121.701 53.6977 121.29 53.6955 121.103 53.4005C120.509 52.4641 119.689 49.9551 122.25 47.8199Z" fill="#191847"/>
<path d="M96.2471 76.7173C98.2035 79.4843 101.151 83.8558 103.404 85.3631C104.029 85.7815 104.613 86.7287 104.342 87.4303L103.949 88.4462C103.66 89.1945 102.659 89.3094 102.217 88.6401L102.184 88.5906C101.891 88.1472 101.615 87.7299 101.351 87.3492C100.145 85.6072 98.0387 85.0679 96.0263 84.4045C95.7971 84.3289 95.5693 84.2511 95.3464 84.1726C94.6942 83.943 94.8612 83.2286 95.5519 83.2607C95.9967 83.2814 96.3335 82.8639 96.219 82.4335L95.0767 78.1389C94.4679 75.8501 94.8799 74.7835 96.2471 76.7173Z" fill="#D4A181"/>
<path d="M102.724 83.6302L109.976 85.6677C112.071 86.2562 114.291 85.2926 115.292 83.3605L118.725 76.733C120.546 73.2172 123.063 70.1082 126.122 67.5949C126.455 67.3218 126.959 67.4895 127.061 67.9074L127.541 69.8669C127.64 70.2714 127.6 70.6974 127.428 71.0764L117.246 93.4374C116.006 96.1592 113.092 97.8735 110.426 96.5175C106.058 94.2957 102.267 90.0987 100.089 87.1117C99.5486 86.3706 99.6392 85.3589 100.262 84.6858L100.715 84.1969C101.225 83.646 102.001 83.4271 102.724 83.6302Z" fill="#191847"/>
<path d="M125.884 67.3849C127.25 67.5975 130.685 67.0301 131.326 67.3849L127.407 104.204L115.939 103.916C115.657 103.559 115.484 102.959 115.399 102.186C114.072 90.1318 122.865 79.1298 125.884 67.3849Z" fill="#DDE3E9"/>
<path d="M151.511 115.33C150.634 115.33 152.685 114.433 150.977 109.242C150.952 109.166 150.948 109.08 150.969 109.002C151.1 108.512 153.61 108.329 153.89 108.752C155.406 111.042 157.634 113.521 159.39 114.984C159.771 115.301 159.618 115.944 159.123 115.96C155.993 116.062 153.687 114.466 152.849 113.42C152.467 114.614 152.084 115.33 151.511 115.33Z" fill="#D4A181"/>
<path d="M120.927 105.226C118.78 98.6684 124.298 77.4656 127.76 67.1838C127.897 66.7792 128.274 66.5164 128.701 66.5164L131.006 66.5164C131.364 66.5164 131.718 66.6122 132.023 66.799C147.489 76.2683 153.237 96.5056 154.404 107.011C154.513 107.992 153.849 108.874 152.886 109.092L150.961 109.528C150.344 109.668 149.698 109.507 149.308 109.009C147.097 106.188 142.719 97.8116 140.241 92.8387C141.249 95.5053 141.56 100.736 141.584 104.269C141.591 105.351 140.705 106.211 139.623 106.211L122.471 106.211C121.79 106.211 121.139 105.873 120.927 105.226Z" fill="#2F3676"/>
</g>
<path d="M154.39 174.771C156.245 171.61 156.914 169.543 157.379 167.324C157.419 167.13 157.514 166.953 157.653 166.813L161.264 163.202L163.543 165.152C164.438 165.917 164.481 167.286 163.637 168.106L154.986 176.508C154.874 176.616 154.696 176.614 154.587 176.502C154.137 176.038 154.063 175.328 154.39 174.771Z" fill="#191949"/>
<path d="M130.598 146.109L119.872 101.901C119.72 101.271 120.196 100.665 120.844 100.665H138.095C138.647 100.665 139.095 101.113 139.095 101.665V139.26C139.095 139.519 139.196 139.769 139.376 139.955L161.647 162.979L157.271 167.218L130.954 146.661C130.777 146.522 130.651 146.328 130.598 146.109Z" fill="#88C5CC"/>
<path d="M121.676 64.6495C121.472 64.343 121.321 63.7086 121.217 62.8653C120.308 55.4361 125.562 44.9987 131.839 49.0768C132.276 49.3613 132.714 49.7056 133.151 50.1148C134.823 51.6823 134.782 54.3728 134.089 57.0006C133.031 61.0106 131.169 64.8056 130.282 68.8569H126.075L127.021 66.5454C127.336 65.7746 126.626 64.9797 125.81 65.1499C124.104 65.5063 122.327 65.6252 121.676 64.6495Z" fill="#CCA994"/>
<path d="M122.25 47.8199C126.282 44.4585 132.094 46.1385 133.534 46.8636L134.87 47.6496C136.112 48.3803 137.08 49.4989 137.624 50.8334C137.946 51.6218 138.111 52.4652 138.111 53.3167L138.111 54.0233C138.111 54.6152 138.021 55.2036 137.843 55.7682L137.595 56.558C137.185 57.8635 136.563 59.0927 135.754 60.1962C135.168 60.9948 134.49 61.7208 133.732 62.3589L132.723 63.2089C132.347 63.5261 131.905 63.7567 131.43 63.8845L131.575 61.7035C131.597 61.3787 131.279 61.1381 130.972 61.2476L130.85 61.2912C130.417 61.4459 130.081 60.898 130.415 60.5821L131.067 59.9667C131.872 59.2069 132.162 58.0494 131.812 56.9997L131.736 56.7996C131.459 56.0756 130.587 55.7889 129.935 56.2077C129.844 56.266 129.762 56.3361 129.689 56.4162L128.905 57.283C128.473 57.7606 127.681 57.4284 127.719 56.7855C127.853 54.5078 125.755 52.7438 123.534 53.2664L122.041 53.6177C121.701 53.6977 121.29 53.6955 121.103 53.4005C120.509 52.4641 119.689 49.9551 122.25 47.8199Z" fill="#191847"/>
<path d="M96.2471 76.7173C98.2035 79.4843 101.151 83.8558 103.404 85.3631C104.029 85.7815 104.613 86.7287 104.342 87.4303L103.949 88.4462C103.66 89.1945 102.659 89.3094 102.217 88.6401L102.184 88.5906C101.891 88.1472 101.615 87.7299 101.351 87.3492C100.145 85.6072 98.0387 85.0679 96.0263 84.4045C95.7971 84.3289 95.5693 84.2511 95.3464 84.1726C94.6942 83.943 94.8612 83.2286 95.5519 83.2607C95.9967 83.2814 96.3335 82.8639 96.219 82.4335L95.0767 78.1389C94.4679 75.8501 94.8799 74.7835 96.2471 76.7173Z" fill="#CCA994"/>
<path d="M101.546 83.2994L109.976 85.6677C112.071 86.2562 114.291 85.2926 115.292 83.3605L118.725 76.733C120.546 73.2172 123.063 70.1082 126.122 67.5949C126.455 67.3218 126.959 67.4895 127.061 67.9074L127.541 69.8669C127.64 70.2714 127.6 70.6974 127.428 71.0764L117.246 93.4374C116.006 96.1592 113.092 97.8735 110.426 96.5175C105.386 93.954 101.115 88.7609 99.2022 85.8309L101.546 83.2994Z" fill="#191847"/>
<path d="M125.884 67.3849C127.25 67.5975 130.685 67.0301 131.326 67.3849L127.407 104.204L115.939 103.916C115.657 103.559 115.484 102.959 115.399 102.186C114.072 90.1318 122.865 79.1298 125.884 67.3849Z" fill="#DDE3E9"/>
<path d="M151.511 115.33C150.634 115.33 152.685 114.433 150.977 109.242C150.952 109.166 150.948 109.08 150.969 109.002C151.1 108.512 153.61 108.329 153.89 108.752C155.406 111.042 157.634 113.521 159.39 114.984C159.771 115.301 159.618 115.944 159.123 115.96C155.993 116.062 153.687 114.466 152.849 113.42C152.467 114.614 152.084 115.33 151.511 115.33Z" fill="#CCA994"/>
<path d="M121.378 106.211C118.067 101.049 124.352 77.0839 127.987 66.5164L131.553 66.5164C148.269 76.3889 153.856 98.7612 154.56 108.713L149.981 109.75C148.133 108.167 143.005 98.3857 140.241 92.8387C141.459 96.0586 141.658 103.018 141.566 106.211L121.378 106.211Z" fill="#2F3676"/>
<rect x="5" y="124.875" width="40.372" height="40.372" rx="5" stroke="url(#paint2_linear)" stroke-width="10" stroke-linecap="round" stroke-linejoin="round"/>
<path d="M43.5974 71.9327C43.6457 71.8603 43.6906 71.7672 43.7322 71.6554C46.3456 64.6418 39.1063 53.9508 33.5664 58.9837C33.5294 59.0173 33.4924 59.0515 33.4554 59.0861C31.8632 60.5788 32.0285 63.2235 32.7787 65.7098C33.6833 68.7082 34.1177 71.9551 32.9474 74.8601L37.1732 75.0292L37.8898 72.8433C38.0567 72.3342 38.5942 72.0503 39.1135 72.1819C40.8314 72.6171 42.9153 72.9559 43.5974 71.9327Z" fill="#CCA994"/>
<path d="M43.0903 57.0577C39.5264 54.0867 34.3895 55.5716 33.1173 56.2125L31.6805 57.0577C30.2977 55.1669 27.8775 52.8935 25.1406 52.2705C18.7454 50.8149 22.2954 60.7576 20.1167 66.9439C19.8722 67.6382 20.3089 68.1319 20.9651 67.7984C22.4728 67.032 24.223 65.4408 25.0718 63.3499C25.9181 61.2654 27.5583 58.9709 29.8081 58.9709L29.6128 59.4496C29.2554 60.3258 29.0716 61.2631 29.0716 62.2093C29.0716 62.952 29.1848 63.6904 29.4074 64.3989L29.4738 64.6103C29.8717 65.8772 30.4754 67.0699 31.2606 68.1407L31.6251 68.6377C31.8306 68.918 32.062 69.1784 32.3163 69.4154L33.2738 70.3082C33.4689 70.4901 33.773 70.4848 33.9616 70.2962L34.6258 69.0596C34.7303 68.8649 34.9615 68.7759 35.1696 68.8503L35.4892 68.9644C35.8721 69.1011 36.1689 68.6168 35.8734 68.3377L35.2974 67.7937C34.5863 67.1221 34.3293 66.0991 34.6386 65.1713L34.7062 64.9944C34.9506 64.3546 35.7215 64.1012 36.2978 64.4713C36.3781 64.5228 36.4512 64.5848 36.5152 64.6556L37.208 65.4217C37.5898 65.8439 38.2902 65.5503 38.2567 64.982C38.1383 62.9688 39.9923 61.4097 41.9554 61.8716L43.2751 62.1821C43.5756 62.2528 43.9393 62.2509 44.1045 61.9902C44.6288 61.1625 45.3542 58.9449 43.0903 57.0577Z" fill="#191847"/>
<path d="M48.2648 172.09C46.2744 169.381 45.4714 167.49 44.8714 165.275C44.7961 164.997 44.609 164.762 44.3522 164.632L41.1617 163.011L39.8899 163.444C38.8767 163.789 38.0269 164.497 37.5041 165.431C37.0662 166.213 37.2964 167.2 38.0352 167.708L47.8088 174.426C47.9836 174.546 48.2229 174.5 48.3399 174.323C48.7908 173.641 48.7487 172.749 48.2648 172.09Z" fill="#191949"/>
<path d="M41.3277 162.464L43.7656 158.039L48.8115 158.804L44.9181 164.644C44.2794 165.603 42.9888 165.869 42.0234 165.241C41.0998 164.641 40.7963 163.429 41.3277 162.464Z" fill="#CBA994"/>
<path d="M57.254 128.002L41.4512 125.531C32.1308 124.073 25.576 115.583 26.5241 106.198H42.9203L68.3437 117.954C70.6724 119.031 72.1632 121.363 72.1632 123.928C72.1632 124.832 71.9771 125.726 71.6165 126.555L54.5837 165.697L39.2016 157.584L58.5584 131.16C59.444 129.951 58.7346 128.234 57.254 128.002Z" fill="#89C5CC"/>
<path fill-rule="evenodd" clip-rule="evenodd" d="M64.9903 93.5707L53.7018 95.3234L55.7271 101.08L64.8868 96.9466C68.8349 97.3899 70.744 97.2832 70.6141 96.6264C70.5046 96.0726 70.0849 95.9054 69.6984 95.7514C69.3973 95.6314 69.1162 95.5195 69.0176 95.239C68.7922 94.5984 70.0756 93.2708 71.3405 92.0705C72.6053 90.8703 71.7563 90.6495 71.2225 90.6672C69.3259 91.1733 67.2485 92.1411 64.9903 93.5707ZM10.0713 125.132C10.9092 123.197 18.2403 98.2974 18.2403 98.2974L24.501 98.3242C24.501 98.3242 14.2035 124.7 13.7624 125.944C13.1895 127.561 14.1627 129.909 14.8226 131.501C14.9247 131.747 15.0193 131.975 15.0995 132.18C14.1839 132.646 13.744 132.083 13.2803 131.488C12.7565 130.817 12.2023 130.107 10.8976 130.798C10.3936 131.065 9.91659 131.38 9.45059 131.689C7.84093 132.754 6.36221 133.732 4.3506 132.319C4.03169 132.095 3.68222 131.252 4.52659 130.593C6.63025 128.951 9.66175 126.078 10.0713 125.132Z" fill="#CBA994"/>
<path d="M35.3892 75.6965L40.2911 76.0682C41.4984 88.4999 48.0742 96.3523 62.797 93.6939L64.753 109.703C50.9923 111.727 38.9241 105.457 36.4508 88.4788C35.8106 84.0837 35.305 79.5098 35.3892 75.6965Z" fill="url(#paint3_linear)"/>
<path fill-rule="evenodd" clip-rule="evenodd" d="M10.9302 121.907C14.3336 101.296 21.517 85.35 32.4804 74.0693H32.9508H32.9668L32.9707 74.0745L40.3977 76.0106C40.3977 86.7792 42.3259 95.0077 44.174 102.895C44.8212 105.657 45.4587 108.377 46 111.15H26.4484C26.1936 114.644 26.0345 118.23 25.9492 121.907H10.9302Z" fill="url(#paint4_linear)"/>
<path fill-rule="evenodd" clip-rule="evenodd" d="M26.5343 111.163C27.1208 103.771 28.1509 96.793 29.8338 90.2283C29.489 97.2152 29.4166 105.878 30.6636 111.163H26.5343Z" fill="black" fill-opacity="0.1"/>
<defs>
<linearGradient id="paint0_linear" x1="45.3691" y1="33.7286" x2="142.522" y2="178.311" gradientUnits="userSpaceOnUse">
<stop stop-color="#F64F6F"/>
<stop offset="1" stop-color="#FFD590"/>
</linearGradient>
<linearGradient id="paint1_linear" x1="45.3691" y1="33.7286" x2="142.522" y2="178.311" gradientUnits="userSpaceOnUse">
<stop offset="0.135417" stop-color="#F64F6F"/>
<stop offset="1" stop-color="#FFD590"/>
</linearGradient>
<linearGradient id="paint2_linear" x1="25.186" y1="119.875" x2="25.2777" y2="170.442" gradientUnits="userSpaceOnUse">
<stop stop-color="#445EA0"/>
<stop offset="1" stop-color="#213668" stop-opacity="0"/>
</linearGradient>
<linearGradient id="paint3_linear" x1="28.2089" y1="81.9057" x2="39.2414" y2="115.372" gradientUnits="userSpaceOnUse">
<stop stop-color="#2B247B"/>
<stop offset="1" stop-color="#A25398"/>
</linearGradient>
<linearGradient id="paint4_linear" x1="3.57586" y1="84.537" x2="28.6627" y2="126.561" gradientUnits="userSpaceOnUse">
<stop stop-color="#2B247B"/>
<stop offset="1" stop-color="#A25398"/>
</linearGradient>
</defs>
</svg>
