<svg width="17" height="19" viewBox="0 0 17 19" fill="none" xmlns="http://www.w3.org/2000/svg">
    <g clip-path="url(#clip0)">
        <path d="M15.5837 1.75684H13.2812V0.631836C13.2812 0.320773 13.0438 0.0693359 12.75 0.0693359C12.4562 0.0693359 12.2188 0.320773 12.2188 0.631836V1.75684H9.03125V0.631836C9.03125 0.320773 8.79325 0.0693359 8.5 0.0693359C8.20675 0.0693359 7.96875 0.320773 7.96875 0.631836V1.75684H4.78125V0.631836C4.78125 0.320773 4.54325 0.0693359 4.25 0.0693359C3.95675 0.0693359 3.71875 0.320773 3.71875 0.631836V1.75684H1.41684C0.634313 1.75684 0 2.4279 0 3.25646V16.5691C0 17.3977 0.634313 18.0693 1.41684 18.0693H15.5837C16.3662 18.0693 17 17.3977 17 16.5691V3.25646C17 2.4279 16.3662 1.75684 15.5837 1.75684ZM15.9375 16.5691C15.9375 16.7761 15.7787 16.9443 15.5837 16.9443H1.41684C1.22134 16.9443 1.0625 16.7761 1.0625 16.5691V3.25646C1.0625 3.05002 1.22134 2.88184 1.41684 2.88184H3.71875V4.00684C3.71875 4.3179 3.95675 4.56934 4.25 4.56934C4.54325 4.56934 4.78125 4.3179 4.78125 4.00684V2.88184H7.96875V4.00684C7.96875 4.3179 8.20675 4.56934 8.5 4.56934C8.79325 4.56934 9.03125 4.3179 9.03125 4.00684V2.88184H12.2188V4.00684C12.2188 4.3179 12.4562 4.56934 12.75 4.56934C13.0438 4.56934 13.2812 4.3179 13.2812 4.00684V2.88184H15.5837C15.7787 2.88184 15.9375 3.05002 15.9375 3.25646V9.9128V16.5691Z" fill="white"/>
        <path d="M7 11.3193H4V13.3193H7V11.3193Z" fill="white"/>
        <path d="M7 6.81934H4V8.81934H7V6.81934Z" fill="white"/>
        <path d="M13.375 11.3193H10.375V13.3193H13.375V11.3193Z" fill="white"/>
        <path d="M13.375 6.81934H10.375V8.81934H13.375V6.81934Z" fill="white"/>
    </g>
    <defs>
        <clipPath id="clip0">
            <rect width="17" height="18" fill="white" transform="translate(0 0.0693359)"/>
        </clipPath>
    </defs>
</svg>
