<svg width="16" height="18" viewBox="0 0 16 18" fill="none" xmlns="http://www.w3.org/2000/svg">
<path d="M13.4863 16.5693H10.2251V12.4256V11.9256H9.72507H6.17842H5.67842V12.4256V16.5693H2.51365C2.20525 16.5693 1.82892 16.2376 1.82892 15.7539V8.90284V8.40284H1.32892H0.537924C0.545498 8.39325 0.554615 8.38258 0.565575 8.3709L0.56562 8.37085L7.79608 0.662484L7.79624 0.66231C7.85688 0.597605 7.92831 0.569336 8.0001 0.569336C8.07157 0.569336 8.14315 0.597561 8.20404 0.662482L15.4344 8.37085C15.4344 8.37085 15.4344 8.37085 15.4344 8.37085C15.4454 8.38255 15.4545 8.39324 15.4621 8.40284H14.647H14.147V8.90284V15.7539C14.147 16.2429 13.781 16.5693 13.4863 16.5693Z" stroke="#8798D9"/>
</svg>
